<?xml version="1.0" standalone="no"?>
<!DOCTYPE svg PUBLIC "-//W3C//DTD SVG 1.1//EN" "http://www.w3.org/Graphics/SVG/1.1/DTD/svg11.dtd">
<svg xmlns="http://www.w3.org/2000/svg">
<defs >
<font id="K2D" horiz-adv-x="593" ><font-face
    font-family="K2D ExtraBold"
    units-per-em="1000"
    panose-1="0 0 9 0 0 0 0 0 0 0"
    ascent="1048"
    descent="-252"
    alphabetic="0" />
<glyph unicode=" " glyph-name="space" horiz-adv-x="258" />
<glyph unicode="!" glyph-name="exclam" horiz-adv-x="305" d="M157 659T198 684T308 709L239 318Q230 267 189 240T78 213L148 609Q157 659 198 684ZM68 -9T46 11T23 63Q23 107 56 138T137 170Q174 170 197 150T221 96Q221 53 187 22T106 -9Q68 -9 46 11Z" />
<glyph unicode="&quot;" glyph-name="quotedbl" horiz-adv-x="434" d="M141 659Q153 692 180 711T262 730Q283 730 307 727L217 545Q200 511 170 494T99 476Q92 476 74 478L141 659ZM316 659Q328 692 355 711T437 730Q458 730 482 727L392 545Q375 511 345 494T274
476Q267 476 249 478L316 659Z" />
<glyph unicode="#" glyph-name="numbersign" horiz-adv-x="831" d="M178 181H27Q23 236 52 268T132 300H214L241 391H107Q103 446 132 478T212 511H276L313 635Q335 709 471 709L411 511H547L584 635Q596 675 637 692T742 709L682 511H836Q840 457 811 424T731
391H646L619 300H755Q759 245 730 213T650 181H584L551 65Q530 -9 392 -9L449 181H313L280 65Q259 -9 121 -9L178 181ZM489 295L519 396H371L341 295H489Z" />
<glyph unicode="$" glyph-name="dollar" horiz-adv-x="655" d="M652 469T518 464Q519 472 519 487Q519 538 492 563T406 592L375 417Q499 388 557 341T616 223Q616 152 579 100T471 19T305 -9H300L291 -62Q287 -87 272 -100T232 -113L250 -7Q143 1 82 41T21 145Q21
255 160 255Q159 247 159 232Q159 180 187 149T271 110L305 301Q196 330 145 374T94 485Q94 585 169 644T376 709L386 763Q391 787 406 800T445 813L426 708Q492 705 543 686T623 636T652 567Q652 469 518 464ZM240 476T259 460T327 429L356 592Q301 586 271 562T240
500Q240 476 259 460ZM470 235T445 252T352 289L320 107Q389 108 429 135T470 208Q470 235 445 252Z" />
<glyph unicode="%" glyph-name="percent" horiz-adv-x="967" d="M654 691Q669 713 693 725T745 737Q789 737 821 708L351 10Q336 -12 313 -24T263 -36Q217 -36 185 -5L654 691ZM180 288T144 305T87 351T66 418Q66 425 68 441L88 556Q95 598 126 633T202 688T300
709Q370 709 414 673T458 580Q458 572 456 556L436 441Q429 399 399 364T323 309T226 288Q180 288 144 305ZM269 402T283 414T301 445L320 552Q323 570 313 582T280 595Q257 595 242 583T224 552L205 445Q204 442 204 436Q204 421 214 412T246 402Q269 402 283
414ZM657 -9T621 8T564 54T543 121Q543 128 545 144L565 259Q572 301 602 336T679 391T777 412Q846 412 890 376T935 282Q935 275 933 259L913 144Q906 102 876 67T800 12T703 -9Q657 -9 621 8ZM754 109T770 121T790 152L807 251Q810 269 798 281T763 294Q739 294
722 282T701 251L684 152Q681 134 693 122T730 109Q754 109 770 121Z" />
<glyph unicode="&amp;" glyph-name="ampersand" horiz-adv-x="750" d="M181 -9T131 13T52 75T24 170Q24 250 70 304T187 403Q142 452 142 506Q142 562 171 608T251 682T363 709Q436 709 479 670T523 566Q523 506 491 465T391 375L512 242Q540 278 553 317T564
389Q625 389 657 372T689 318Q689 277 661 236T591 154L679 53Q664 25 636 9T577 -7Q538 -7 515 17L478 56Q419 21 365 6T245 -9Q181 -9 131 13ZM376 500T376 547Q376 565 367 575T341 585Q319 585 304 566T289 519Q289 491 319 462Q376 500 376 547ZM344 119T403
154L263 310Q224 289 199 257T173 190Q173 155 200 137T273 119Q344 119 403 154Z" />
<glyph unicode="&apos;" glyph-name="quotesingle" horiz-adv-x="269" d="M141 659Q167 730 270 730Q291 730 317 727L227 545Q192 476 102 476Q94 476 74 478L141 659Z" />
<glyph unicode="(" glyph-name="parenleft" horiz-adv-x="356" d="M32 327T90 459T243 682Q262 700 286 711T336 722Q381 722 408 685Q182 467 182 190Q182 118 204 52T272 -83Q232 -120 188 -120Q164 -120 143 -109T108 -79Q32 28 32 175Q32 327 90 459Z" />
<glyph unicode=")" glyph-name="parenright" horiz-adv-x="356" d="M340 277T284 144T130 -80Q111 -99 87 -110T38 -121Q-7 -121 -34 -83Q191 136 191 412Q191 485 169 551T101 685Q142 722 186 722Q211 722 231 712T264 683Q340 574 340 425Q340 277 284 144Z" />
<glyph unicode="*" glyph-name="asterisk" horiz-adv-x="517" d="M103 392L187 480L73 470L97 605L208 597L154 686L298 761L330 659L397 761L514 687L428 596L544 605L520 471L407 478L463 390L316 318L285 423L212 316L103 392Z" />
<glyph unicode="+" glyph-name="plus" horiz-adv-x="648" d="M248 229H31Q41 288 72 321T151 355H270L288 456Q297 507 336 531T449 555L414 355H631Q621 296 591 263T510 229H392L374 127Q356 28 213 28L248 229Z" />
<glyph unicode="," glyph-name="comma" horiz-adv-x="264" d="M39 -102T65 -66T96 -3Q86 -9 70 -9Q40 -9 21 10T2 60Q2 106 35 139T116 172Q155 172 176 150T198 94Q198 39 162 -27T74 -132Q53 -147 26 -147Q5 -147 -5 -137Q39 -102 65 -66Z" />
<glyph unicode="-" glyph-name="hyphen" horiz-adv-x="489" d="M52 350T146 350H471Q450 233 356 233H31Q52 350 146 350Z" />
<glyph unicode="." glyph-name="period" horiz-adv-x="235" d="M40 -9T21 9T1 56Q1 94 30 123T99 152Q129 152 149 134T169 86Q169 48 139 20T70 -9Q40 -9 21 9Z" />
<glyph unicode="/" glyph-name="slash" horiz-adv-x="580" d="M458 691Q473 713 497 725T549 737Q593 737 625 708L155 10Q140 -12 116 -24T66 -36Q21 -36 -11 -5L458 691Z" />
<glyph unicode="0" glyph-name="zero" horiz-adv-x="672" d="M220 -9T163 17T74 90T42 192Q42 208 45 224L89 476Q101 546 145 599T260 680T417 709Q489 709 545 684T632 613T664 511Q664 494 661 476L617 224Q598 115 511 53T290 -9Q220 -9 163 17ZM380 119T420
147T471 229L514 471Q516 479 516 495Q516 537 485 559T394 581Q327 581 287 553T236 471L193 229Q191 221 191 205Q191 163 222 141T312 119Q380 119 420 147Z" />
<glyph unicode="1" glyph-name="one" horiz-adv-x="380" d="M229 574H181Q143 574 122 599T101 667Q101 682 104 700H330Q355 700 371 685T388 648Q388 641 387 638L292 97Q283 45 241 18T126 -9L229 574Z" />
<glyph unicode="2" glyph-name="two" horiz-adv-x="639" d="M32 0T17 13T1 50Q1 123 81 195T308 327Q405 366 445 406T486 502Q486 540 459 560T380 581Q302 581 262 544T222 434Q222 426 223 423Q207 420 191 420Q147 420 118 443T88 503Q88 558 129 605T241
681T393 709Q466 709 521 686T606 621T637 522Q637 347 370 236Q272 195 230 171T181 125H472Q517 125 540 103T563 38Q563 19 559 0H59Q32 0 17 13Z" />
<glyph unicode="3" glyph-name="three" horiz-adv-x="652" d="M200 -9T142 12T53 71T21 160Q21 224 60 253T183 283Q178 269 174 245T169 209Q169 118 299 118Q378 118 418 145T459 225Q459 295 350 295H319Q295 295 281 308T267 343Q267 375 288 397T341 419H373Q429
419 460 444T491 516Q491 548 464 565T384 582Q320 582 281 560T234 497Q230 474 230 451Q172 449 136 468T100 522Q100 573 141 616T253 684T406 709Q516 709 579 663T642 538Q642 480 611 434T520 357Q610 312 610 232Q610 161 568 106T451 21T277 -9Q200 -9
142 12Z" />
<glyph unicode="4" glyph-name="four" horiz-adv-x="656" d="M353 172H72Q47 172 33 184T19 216Q19 231 25 246T43 273L463 686Q473 696 491 702T530 709Q555 709 570 695T586 658Q586 649 585 645L523 297H638Q627 232 600 202T525 172H501L485 81Q477 34 438
13T321 -9L353 172ZM385 297L416 469L463 520L456 526L222 297H385Z" />
<glyph unicode="5" glyph-name="five" horiz-adv-x="639" d="M202 -9T145 13T54 73T20 156Q20 266 154 266L175 265Q170 252 166 234T162 205Q162 164 196 142T293 119Q369 119 416 165T464 286Q464 335 431 362T337 389Q260 389 199 351Q171 333 140 333Q113
333 96 347T79 386Q79 398 83 409L165 647Q184 700 244 700H651Q628 575 529 575H264L232 482Q202 464 182 447L187 440Q229 472 288 491T399 511Q461 511 508 487T582 417T608 314Q608 216 567 143T449 31T270 -9Q202 -9 145 13Z" />
<glyph unicode="6" glyph-name="six" horiz-adv-x="666" d="M214 -9T156 19T65 98T32 210Q32 275 67 347T160 474L378 677Q397 695 413 702T452 709Q510 709 541 662L394 523Q345 509 329 501L332 488Q353 496 382 502T432 509Q492 509 538 484T610 414T636 311Q636
221 590 148T465 33T287 -9Q214 -9 156 19ZM360 116T402 140T468 205T492 297Q492 352 457 384T362 416Q311 416 269 392T203 326T178 234Q178 177 212 147T309 116Q360 116 402 140Z" />
<glyph unicode="7" glyph-name="seven" horiz-adv-x="611" d="M461 574H181Q142 574 121 597T100 662Q100 672 104 700H595Q623 700 639 686T656 650Q656 631 641 608L257 35Q228 -9 173 -9Q144 -9 124 -3T88 19L461 574Z" />
<glyph unicode="8" glyph-name="eight" horiz-adv-x="656" d="M206 -10T148 13T57 77T24 172Q24 236 62 288T169 369Q102 412 102 482Q102 546 141 597T250 679T404 709Q475 709 529 688T614 629T644 541Q644 487 615 444T528 369Q570 348 592 315T615 238Q615
165 574 109T456 21T282 -10Q206 -10 148 13ZM422 418T460 445T499 518Q499 586 387 586Q322 586 284 560T245 489Q245 457 275 438T357 418Q422 418 460 445ZM383 113T427 144T472 232Q472 272 438 294T339 316Q263 316 217 283T170 195Q170 155 204 134T304 113Q383
113 427 144Z" />
<glyph unicode="9" glyph-name="nine" horiz-adv-x="666" d="M483 709T542 682T635 606T669 494Q669 424 635 353T541 226L323 23Q304 5 288 -2T248 -9Q189 -9 160 38L315 177Q330 180 350 187T381 199L377 212Q335 191 284 191Q220 191 170 215T92 284T64 384Q64
480 107 554T227 668T406 709Q483 709 542 682ZM340 584T299 561T233 496T209 402Q209 347 244 316T339 284Q390 284 432 308T498 374T523 467Q523 521 488 552T392 584Q340 584 299 561Z" />
<glyph unicode=":" glyph-name="colon" horiz-adv-x="263" d="M110 337T88 357T65 412Q65 442 80 468T122 510T179 526Q215 526 237 504T260 447Q260 403 226 370T146 337Q110 337 88 357ZM48 -9T26 12T4 67Q4 113 38 146T118 180Q154 180 176 158T199 102Q199
73 184 48T142 7T85 -9Q48 -9 26 12Z" />
<glyph unicode=";" glyph-name="semicolon" horiz-adv-x="264" d="M109 337T87 357T64 412Q64 442 80 468T122 510T179 526Q214 526 237 504T260 447Q260 403 226 370T146 337Q109 337 87 357ZM39 -102T65 -66T96 -3Q86 -9 70 -9Q40 -9 21 10T2 60Q2 106 35 139T116
172Q155 172 176 150T198 94Q198 39 162 -27T74 -132Q53 -147 26 -147Q5 -147 -5 -137Q39 -102 65 -66Z" />
<glyph unicode="&lt;" glyph-name="less" horiz-adv-x="675" d="M71 238Q57 244 49 255T41 282Q41 302 54 319T90 346L666 572Q684 542 684 511Q684 479 665 453T613 414L258 287L568 160Q587 152 597 136T607 100Q607 78 597 55T567 11L71 238Z" />
<glyph unicode="=" glyph-name="equal" horiz-adv-x="647" d="M58 386T88 419T168 453H647Q636 393 606 360T527 327H48Q58 386 88 419ZM24 190T54 223T133 256H612Q602 197 572 164T492 130H13Q24 190 54 223Z" />
<glyph unicode="&gt;" glyph-name="greater" horiz-adv-x="675" d="M8 36T8 65Q8 100 26 129T76 170L432 297L120 424Q77 442 77 483Q77 527 121 572L617 346Q631 340 639 329T647 302Q647 281 634 264T598 238L22 11Q8 36 8 65Z" />
<glyph unicode="?" glyph-name="question" horiz-adv-x="573" d="M215 282Q222 324 252 351T336 412Q387 444 411 467T436 526Q436 582 348 582Q220 582 220 452L221 440Q206 437 191 437Q146 437 115 459T83 516Q83 565 120 609T220 681T360 709Q429 709 480
689T559 632T587 549Q587 503 565 468T512 409T435 358Q398 336 381 323T360 294L356 274Q342 202 201 202L215 282ZM193 -9T171 11T148 63Q148 107 181 138T262 170Q300 170 323 150T346 96Q346 53 312 22T231 -9Q193 -9 171 11Z" />
<glyph unicode="@" glyph-name="at" horiz-adv-x="831" d="M274 -9T199 27T85 127T46 275Q46 396 106 495T270 652T501 709Q599 709 672 680T786 596T827 461Q827 379 791 310T691 199T554 158Q517 158 492 177T466 226Q443 196 405 177T326 158Q273 158 246 185T218
262Q218 333 254 398T348 504T471 545Q501 545 522 531T552 495L569 531H663L549 288Q544 276 544 270Q544 251 573 251Q606 251 635 279T681 353T699 451Q699 533 642 567T482 601Q391 601 322 562T213 451T174 287Q174 197 232 149T402 100Q503 100 579 135Q594
141 607 141Q629 141 647 126T675 85Q551 -9 383 -9Q274 -9 199 27ZM388 246T417 274T465 345T484 427Q484 457 454 457Q425 457 395 430T345 361T325 279Q325 246 361 246Q388 246 417 274Z" />
<glyph unicode="A" glyph-name="A" horiz-adv-x="698" d="M51 -5T28 17T4 74Q4 113 32 157L349 660Q366 686 385 697T429 709Q480 709 493 660L630 157Q636 133 636 112Q636 61 605 29T519 -9L469 174H210L94 -9Q51 -5 28 17ZM444 300L386 556L371 550L386 483L276
300H444Z" />
<glyph unicode="B" glyph-name="B" horiz-adv-x="677" d="M57 0T39 16T21 57Q21 64 22 67L122 633Q127 661 152 680T208 700H473Q561 700 610 658T660 541Q660 486 630 437T550 361L549 357Q590 341 613 310T636 235Q636 173 600 119T501 32T368 0H84Q57 0 39
16ZM420 411Q455 411 482 442T510 515Q510 544 494 560T449 576H255L226 411H420ZM389 124Q432 124 460 153T488 227Q488 257 470 273T418 289H204L175 124H389Z" />
<glyph unicode="C" glyph-name="C" horiz-adv-x="686" d="M219 -9T159 19T65 97T32 215Q32 236 37 266L67 436Q89 561 180 635T420 709Q499 709 560 686T656 621T691 526Q691 480 645 451T526 421Q540 465 540 488Q540 529 501 555T398 581Q328 581 277 541T214
436L184 266Q182 257 182 239Q182 185 219 152T322 119Q376 119 417 138T482 193T506 274V275Q566 275 603 257T641 211Q641 147 598 97T477 19T300 -9Q219 -9 159 19Z" />
<glyph unicode="D" glyph-name="D" horiz-adv-x="687" d="M56 0T39 15T21 55Q21 63 22 67L122 633Q127 662 152 681T208 700H426Q501 700 560 670T653 587T686 469Q686 444 682 424L656 278Q631 141 542 71T302 0H84Q56 0 39 15ZM314 126Q397 126 446 164T509
276L535 426Q538 446 538 462Q538 517 502 545T393 574H258L179 126H314Z" />
<glyph unicode="E" glyph-name="E" horiz-adv-x="631" d="M122 633Q127 661 152 680T208 700H655Q644 635 616 605T539 574H258L231 416H493Q482 351 454 321T377 290H208L179 126H481Q519 126 537 108T556 49Q556 30 551 0H84Q56 0 39 15T21 55Q21 63 22 67L122 633Z" />
<glyph unicode="F" glyph-name="F" horiz-adv-x="619" d="M122 633Q127 661 152 680T208 700H663Q651 634 624 604T548 574H259L232 421H494Q482 354 455 325T379 295H210L174 92Q164 39 126 15T9 -9L122 633Z" />
<glyph unicode="G" glyph-name="G" horiz-adv-x="685" d="M224 -9T163 19T67 99T33 217Q33 243 37 266L67 436Q81 516 129 578T253 674T420 709Q499 709 561 686T657 622T692 528Q692 482 647 453T528 424Q541 463 541 492Q541 532 501 557T398 583Q328 583 277
542T214 436L184 266Q182 256 182 238Q182 183 219 150T322 117Q392 117 441 149T500 231L504 254H431Q397 254 377 277T356 340Q356 354 359 369H602Q628 369 643 355T659 316Q659 307 658 302L645 228Q633 159 587 105T468 21T306 -9Q224 -9 163 19Z" />
<glyph unicode="H" glyph-name="H" horiz-adv-x="685" d="M117 603Q126 655 168 682T283 709L231 416H511L544 603Q553 655 595 682T710 709L602 97Q593 45 551 18T436 -9L489 289H209L175 97Q166 45 124 18T9 -9L117 603Z" />
<glyph unicode="I" glyph-name="I" horiz-adv-x="297" d="M137 602Q146 653 189 681T302 709L194 98Q185 47 142 19T29 -9L137 602Z" />
<glyph unicode="J" glyph-name="J" horiz-adv-x="621" d="M183 -9T129 15T45 82T14 178Q14 243 57 269T179 295Q174 280 170 254T165 212Q165 166 192 143T273 119Q335 119 374 155T425 259L480 573H385Q305 573 305 656Q305 679 309 700H578Q605 700 622 685T639
645Q639 637 638 633L572 259Q549 131 466 61T251 -9Q183 -9 129 15Z" />
<glyph unicode="K" glyph-name="K" horiz-adv-x="655" d="M117 600Q126 652 169 680T284 709L228 397L607 709Q629 694 642 671T656 628Q656 609 642 594T597 553L377 375L583 38Q542 -9 489 -9Q437 -9 414 30L263 285L199 230L175 92Q166 40 127 16T10 -9L117 600Z" />
<glyph unicode="L" glyph-name="L" horiz-adv-x="588" d="M59 0T41 18T23 64Q23 73 24 78L117 603Q127 657 167 683T282 709L180 127H438Q479 127 500 105T522 40Q522 19 518 0H87Q59 0 41 18Z" />
<glyph unicode="M" glyph-name="M" horiz-adv-x="805" d="M117 602Q126 652 169 681T278 710L386 198L351 130L361 125L678 709Q739 709 775 684T812 617Q812 607 811 601L703 -9Q577 -9 577 74Q577 80 579 96L629 382L683 482L671 486L422 30Q412 12 395 2T357
-9Q337 -9 323 2T305 31L216 488L203 483L221 383L171 96Q162 44 121 18T9 -9L117 602Z" />
<glyph unicode="N" glyph-name="N" horiz-adv-x="675" d="M115 594Q124 646 166 677T269 709L499 201L512 210L480 285L555 709Q683 709 683 624Q683 619 681 603L590 88Q583 50 544 21T461 -9L215 532L203 523L235 448L173 97Q164 45 122 18T9 -9L115 594Z" />
<glyph unicode="O" glyph-name="O" horiz-adv-x="672" d="M213 -9T154 18T62 92T29 196Q29 213 32 231L74 469Q87 543 136 597T259 680T417 709Q492 709 551 682T645 607T679 502Q679 486 676 469L634 231Q622 161 574 107T453 22T291 -9Q213 -9 154 18ZM381 119T429
151T487 234L528 466Q530 480 530 487Q530 531 496 556T395 581Q327 581 279 549T221 466L180 234Q178 218 178 212Q178 168 211 144T313 119Q381 119 429 151Z" />
<glyph unicode="P" glyph-name="P" horiz-adv-x="688" d="M122 633Q127 662 152 681T208 700H478Q538 700 587 676T664 609T692 513Q692 379 616 304T404 229H198L175 97Q166 45 124 18T9 -9L122 633ZM417 356Q481 356 512 389T543 493Q543 531 521 552T456 573H259L220
356H417Z" />
<glyph unicode="Q" glyph-name="Q" horiz-adv-x="701" d="M507 -30T483 -15T445 26Q410 9 370 0T291 -9Q216 -9 157 18T63 93T29 198Q29 215 32 231L74 469Q86 535 131 590T251 677T417 709Q492 709 551 682T645 607T679 502Q679 486 676 469L634 231Q620 153
554 93Q564 75 586 65T632 56Q624 10 603 -10T540 -30Q507 -30 483 -15ZM481 211T484 217T488 232L528 466Q530 482 530 488Q530 531 496 556T395 581Q327 581 278 549T220 466L191 299Q223 307 249 307Q328 307 381 286T480 208Q481 211 484 217ZM347 117T388
130Q358 175 321 188T221 202Q206 202 181 197Q189 163 224 140T313 117Q347 117 388 130Z" />
<glyph unicode="R" glyph-name="R" horiz-adv-x="670" d="M122 633Q127 662 152 681T208 700H470Q566 700 617 657T669 532Q669 455 636 400T539 317V313Q604 280 604 205Q604 194 600 166L588 97Q579 45 537 18T422 -9L452 161Q455 179 455 195Q455 227 439 242T390
258H201L173 97Q164 45 123 18T9 -9L122 633ZM406 383Q458 383 489 417T520 509Q520 575 440 575H257L223 383H406Z" />
<glyph unicode="S" glyph-name="S" horiz-adv-x="655" d="M174 -9T98 32T21 145Q21 255 160 255Q159 247 159 231Q159 170 199 139T315 107Q386 107 428 134T470 208Q470 228 457 242T413 269T324 296Q205 325 150 370T94 485Q94 553 130 604T235 682T397 709Q471
709 529 691T619 641T652 567Q652 469 518 464Q519 472 519 488Q519 543 488 568T387 593Q318 593 279 569T240 500Q240 471 269 453T373 417Q498 388 557 341T616 223Q616 152 579 100T471 19T305 -9Q174 -9 98 32Z" />
<glyph unicode="T" glyph-name="T" horiz-adv-x="678" d="M323 573H81Q104 700 218 700H732Q711 573 595 573H470L386 97Q377 45 335 18T220 -9L323 573Z" />
<glyph unicode="U" glyph-name="U" horiz-adv-x="700" d="M228 -9T170 20T80 100T47 216Q47 241 51 261L111 603Q120 655 162 682T277 709L198 261Q195 245 195 229Q195 176 229 148T326 119Q401 119 446 155T504 261L564 603Q573 655 615 682T730 709L651 261Q628
133 537 62T303 -9Q228 -9 170 20Z" />
<glyph unicode="V" glyph-name="V" horiz-adv-x="721" d="M262 -9T251 40L112 694Q124 700 142 704T176 709Q262 709 274 640L346 236L309 168L320 163L576 640Q614 709 699 709Q716 709 735 705T763 694L395 40Q367 -9 314 -9Q262 -9 251 40Z" />
<glyph unicode="W" glyph-name="W" horiz-adv-x="922" d="M228 -9T196 15T160 85L112 692Q144 709 185 709Q226 709 248 691T271 638L286 290L250 207L260 204L467 659Q477 683 497 696T541 709Q565 709 580 696T597 659L630 280L594 192L603 189L785 638Q799
673 827 691T897 709Q939 709 964 692L702 85Q661 -9 550 -9L499 530L490 527L496 464L284 -9Q228 -9 196 15Z" />
<glyph unicode="X" glyph-name="X" horiz-adv-x="706" d="M54 -9T31 1T-5 29L289 360L121 681Q152 709 196 709Q228 709 253 699T286 672L375 481L338 440L348 432L550 672Q564 689 593 699T654 709Q680 709 703 701T735 681L453 360L631 29Q608 8 590 0T546 -9Q520
-9 500 1T471 30L361 252L171 30Q155 11 132 1T82 -9Q54 -9 31 1Z" />
<glyph unicode="Y" glyph-name="Y" horiz-adv-x="711" d="M281 250L112 694Q123 700 144 704T183 709Q223 709 247 693T284 640L374 392L333 330L344 325L555 640Q601 709 682 709Q700 709 722 704T753 694L428 249L401 97Q392 45 350 18T235 -9L281 250Z" />
<glyph unicode="Z" glyph-name="Z" horiz-adv-x="700" d="M31 0T16 13T0 49Q0 65 6 79T23 105L550 613L542 621L492 575H220Q178 575 156 597T134 661Q134 681 138 700H675Q703 700 717 688T732 653Q732 637 726 622T709 595L187 87L195 79L244 125H539Q580 125
602 103T624 39Q624 19 620 0H57Q31 0 16 13Z" />
<glyph unicode="[" glyph-name="bracketleft" horiz-adv-x="391" d="M151 797H452Q440 730 413 701T337 671H276L155 -13H217Q292 -13 292 -91Q292 -109 287 -139H-14L151 797Z" />
<glyph unicode="\" glyph-name="backslash" horiz-adv-x="580" d="M457 -35T411 -35Q385 -35 366 -24T339 10L115 708Q157 737 202 737Q229 737 249 725T276 691L499 -5Q457 -35 411 -35Z" />
<glyph unicode="]" glyph-name="bracketright" horiz-adv-x="391" d="M-34 -139Q-22 -72 5 -43T80 -13H142L263 671H202Q161 671 144 690T126 748Q126 767 131 797H432L267 -139H-34Z" />
<glyph unicode="^" glyph-name="asciicircum" horiz-adv-x="658" d="M344 709Q367 743 414 743Q461 743 472 709L622 251Q609 239 590 233T549 226Q522 226 501 237T473 270L386 546L202 270Q188 248 161 237T103 225Q80 225 62 232T34 251L344 709Z" />
<glyph unicode="_" glyph-name="underscore" horiz-adv-x="610" d="M-18 -49T76 -49H521Q500 -166 406 -166H-39Q-18 -49 76 -49Z" />
<glyph unicode="`" glyph-name="grave" horiz-adv-x="372" d="M349 517T326 517Q293 517 277 523T251 547L124 756H219Q293 756 311 710L384 520Q349 517 326 517Z" />
<glyph unicode="a" glyph-name="a" horiz-adv-x="544" d="M103 -9T59 28T15 126Q15 184 45 230T130 302T252 328Q296 328 329 315T390 273L396 279Q382 296 368 306L370 319Q371 324 371 333Q371 366 348 384T280 402Q236 402 199 386T136 339Q116 344 103 358T89
390Q89 423 118 450T199 493T312 509Q404 509 456 469T509 358Q509 341 506 323L463 80Q455 33 422 12T320 -9L327 30Q342 41 356 55L352 60Q311 23 270 7T174 -9Q103 -9 59 28ZM283 89T314 111T345 171Q345 199 321 214T255 230Q208 230 179 207T150 145Q150 89
230 89Q283 89 314 111Z" />
<glyph unicode="b" glyph-name="b" horiz-adv-x="569" d="M120 619Q127 663 167 686T275 709L234 481Q219 471 209 461L212 456Q239 478 285 493T369 509Q446 509 490 470T535 364Q535 346 532 328L505 173Q491 91 430 41T284 -9Q232 -9 197 11T136 76L130 72Q136
59 145 46Q135 -9 9 -9L120 619ZM308 109T335 128T370 183L394 318Q395 324 395 334Q395 391 312 391Q271 391 240 372T204 322L179 178Q178 175 178 168Q178 142 201 126T262 109Q308 109 335 128Z" />
<glyph unicode="c" glyph-name="c" horiz-adv-x="520" d="M140 -9T87 33T34 146Q34 162 37 178L60 311Q70 369 106 414T197 484T319 509Q401 509 452 475T504 386Q504 348 469 324T377 300Q379 312 379 318Q379 351 359 371T303 391Q263 391 233 367T196 304L176
188Q175 183 175 174Q175 145 196 127T254 109Q294 109 323 134T361 199Q407 199 435 183T464 140Q464 96 435 63T352 10T229 -9Q140 -9 87 33Z" />
<glyph unicode="d" glyph-name="d" horiz-adv-x="569" d="M147 -9T111 11T54 65T33 142Q33 158 36 173L63 327Q72 380 105 421T188 486T299 509Q335 509 371 494T428 456L433 461Q428 469 414 481L439 619Q447 663 486 686T594 709L483 82Q475 40 437 16T341 -9L350
45Q367 62 374 72L370 76Q329 30 288 11T193 -9Q147 -9 111 11ZM298 109T328 128T363 178L388 322Q389 325 389 332Q389 358 366 374T306 391Q261 391 233 372T199 318L175 183Q173 171 173 167Q173 139 194 124T257 109Q298 109 328 128Z" />
<glyph unicode="e" glyph-name="e" horiz-adv-x="534" d="M177 -9T132 12T61 71T35 153Q35 171 37 180L60 308Q70 367 107 412T201 483T325 509Q381 509 423 489T489 432T513 349Q513 333 510 315L500 261Q495 236 475 220T426 204H174L172 190Q171 184 171 172Q171
137 192 118T253 99Q296 99 323 118T356 171Q378 173 385 173Q461 173 461 120Q461 86 430 56T347 9T233 -9Q177 -9 132 12ZM383 301L386 315Q389 327 389 337Q389 368 368 385T305 402Q263 402 233 379T194 315L191 301H383Z" />
<glyph unicode="f" glyph-name="f" horiz-adv-x="427" d="M129 399H50Q60 452 78 476T127 500H147L153 534Q167 614 223 661T359 709Q408 709 438 689T468 637Q468 620 459 601T434 571Q400 591 362 591Q329 591 312 577T289 529L284 500H415Q406 447 382 423T311
399H266L208 71Q200 29 165 10T57 -9L129 399Z" />
<glyph unicode="g" glyph-name="g" horiz-adv-x="554" d="M100 -209T49 -179T-3 -101Q-3 -61 25 -41T108 -20Q104 -101 202 -101Q253 -101 281 -76T321 3L326 29Q343 41 351 49L348 54Q321 32 275 17T191 1Q116 1 71 42T25 150Q25 166 28 182L53 327Q67 409 128
459T274 509Q326 509 362 489T422 424L428 428Q423 440 414 454Q418 481 452 495T548 509L463 24Q444 -83 369 -146T183 -209Q100 -209 49 -179ZM289 118T320 138T357 188L380 322Q381 325 381 332Q381 358 358 375T297 392Q250 392 223 373T188 317L166 192Q165
187 165 177Q165 148 186 133T248 118Q289 118 320 138Z" />
<glyph unicode="h" glyph-name="h" horiz-adv-x="565" d="M117 605Q126 655 167 682T273 709L227 450Q208 431 196 416L202 412Q289 509 393 509Q456 509 496 468T537 364Q537 349 534 332L488 71Q480 30 444 11T337 -9L393 311Q395 325 395 330Q395 359 377 375T325
391Q277 391 241 360T197 282L160 71Q153 29 117 10T9 -9L117 605Z" />
<glyph unicode="i" glyph-name="i" horiz-adv-x="288" d="M162 547T141 565T120 613Q120 653 151 681T225 709Q258 709 279 691T300 643Q300 603 270 575T196 547Q162 547 141 565ZM106 429Q114 470 150 489T257 509L180 71Q173 29 137 10T29 -9L106 429Z" />
<glyph unicode="j" glyph-name="j" horiz-adv-x="429" d="M303 547T282 565T261 613Q261 652 291 680T365 709Q399 709 420 691T441 643Q441 604 411 576T337 547Q303 547 282 565ZM28 -209T-6 -185T-40 -122Q-40 -100 -29 -81T1 -54Q24 -91 81 -91Q116 -91 139
-72T168 -18L247 429Q255 470 291 489T398 509L305 -19Q289 -110 231 -159T82 -209Q28 -209 -6 -185Z" />
<glyph unicode="k" glyph-name="k" horiz-adv-x="548" d="M509 429T498 415T463 380L342 282L480 32Q451 -9 402 -9Q381 -9 367 0T342 30L250 206L173 144L160 71Q153 28 116 10T10 -9L118 605Q136 709 275 709L202 299L464 509Q487 488 498 473T509 443Q509 429
498 415Z" />
<glyph unicode="l" glyph-name="l" horiz-adv-x="373" d="M111 -9T71 29T31 131Q31 148 34 166L116 629Q124 671 159 690T267 709L172 171Q170 157 170 151Q170 129 182 119T223 109Q261 109 301 129Q317 113 317 87Q317 47 277 19T178 -9Q111 -9 71 29Z" />
<glyph unicode="m" glyph-name="m" horiz-adv-x="784" d="M82 405Q91 456 128 482T229 509L219 450Q198 429 188 416L194 412Q237 463 276 486T360 509Q398 509 423 487T457 424Q488 465 531 487T626 509Q684 509 718 473T752 375Q752 352 748 332L702 71Q694
29 659 10T553 -9L611 320Q613 336 613 341Q613 394 562 394Q526 394 502 369T469 296L429 71Q421 29 387 10T282 -9L340 320Q342 336 342 341Q342 367 330 380T292 394Q255 394 231 368T197 291L158 71Q151 29 116 10T9 -9L82 405Z" />
<glyph unicode="n" glyph-name="n" horiz-adv-x="569" d="M82 405Q91 456 129 482T231 509L221 450Q201 430 190 416L196 412Q235 459 286 484T393 509Q456 509 496 468T536 364Q536 349 533 332L487 71Q479 30 443 11T336 -9L392 311Q394 325 394 331Q394 360
377 375T325 391Q278 391 242 361T197 282L160 71Q152 29 117 10T9 -9L82 405Z" />
<glyph unicode="o" glyph-name="o" horiz-adv-x="542" d="M167 -9T120 12T47 70T21 152Q21 169 23 178L46 311Q62 401 134 455T317 509Q379 509 425 488T496 429T521 343Q521 328 518 311L495 178Q480 92 407 42T226 -9Q167 -9 120 12ZM294 109T323 130T360 188L380
304Q382 316 382 321Q382 354 360 372T297 391Q251 391 220 367T182 304L162 188Q161 183 161 172Q161 142 183 126T247 109Q294 109 323 130Z" />
<glyph unicode="p" glyph-name="p" horiz-adv-x="554" d="M84 418Q92 459 130 484T226 509L216 455Q201 440 192 428L197 424Q237 469 280 489T378 509Q450 509 492 469T535 363Q535 345 532 327L505 173Q490 87 428 39T268 -9Q232 -9 195 6T139 44L134 39Q137
31 152 19L128 -119Q120 -163 81 -186T-27 -209L84 418ZM307 109T335 128T370 182L394 317Q395 322 395 332Q395 361 374 376T311 391Q270 391 240 372T204 322L178 178Q177 175 177 168Q177 142 200 126T261 109Q307 109 335 128Z" />
<glyph unicode="q" glyph-name="q" horiz-adv-x="556" d="M440 -119Q432 -163 393 -186T285 -209L325 19Q343 31 351 39L347 44Q319 21 274 6T190 -9Q142 -9 104 10T45 64T23 142Q23 157 26 172L53 327Q62 379 93 420T172 485T275 509Q327 509 363 489T423 424L429
428Q421 444 415 454Q424 509 550 509L440 -119ZM252 391T224 372T189 317L165 182Q164 177 164 168Q164 139 185 124T248 109Q289 109 319 128T355 178L380 322Q381 325 381 332Q381 358 358 374T298 391Q252 391 224 372Z" />
<glyph unicode="r" glyph-name="r" horiz-adv-x="441" d="M292 391T249 361T197 282L160 71Q152 29 117 10T9 -9L82 405Q91 456 129 482T231 509L221 450Q201 430 190 416L196 412Q278 509 370 509Q407 509 427 492T448 442Q448 425 442 407T423 375Q400 391 351
391Q292 391 249 361Z" />
<glyph unicode="s" glyph-name="s" horiz-adv-x="518" d="M137 -9T80 20T22 100Q22 138 50 159T130 180Q131 142 158 119T230 95Q284 95 314 109T344 150Q344 167 321 181T244 208Q146 232 107 264T67 345Q67 423 126 466T293 509Q383 509 441 480T499 404Q499
368 476 352T397 334Q390 373 366 391T295 409Q255 409 227 396T198 363Q198 348 218 337T287 316Q475 276 475 160Q475 79 411 35T231 -9Q137 -9 80 20Z" />
<glyph unicode="t" glyph-name="t" horiz-adv-x="467" d="M193 -9T157 25T121 122Q121 145 125 166L166 399H60Q68 447 91 473T147 500H186L200 579Q208 621 242 640T347 659L319 500H452Q443 447 419 423T348 399H303L263 171Q261 155 261 149Q261 127 272 118T310
109Q345 109 386 129Q393 122 397 111T401 87Q401 47 360 19T259 -9Q193 -9 157 25Z" />
<glyph unicode="u" glyph-name="u" horiz-adv-x="563" d="M480 95Q471 44 433 18T330 -9L341 50Q349 57 357 66T372 84L365 88Q286 -9 178 -9Q111 -9 70 32T29 140Q29 158 32 177L76 429Q84 471 119 490T228 509L171 187Q169 178 169 163Q169 135 187 122T243
109Q289 109 322 138T364 218L401 429Q409 471 444 490T553 509L480 95Z" />
<glyph unicode="v" glyph-name="v" horiz-adv-x="570" d="M212 -9T195 3T173 36L78 498Q85 502 103 505T136 509Q171 509 193 496T218 459L259 163L233 114L242 111L418 459Q430 482 457 495T518 509Q534 509 553 506T578 498L320 36Q308 14 287 3T239 -9Q212 -9 195 3Z" />
<glyph unicode="w" glyph-name="w" horiz-adv-x="744" d="M181 -9T149 11T114 68L78 497Q87 502 106 505T141 509Q173 509 193 495T215 457L221 209L197 149L203 147L343 464Q352 485 371 497T417 509Q443 509 459 497T477 464L495 201L468 138L474 136L601 457Q610
480 635 494T693 509Q710 509 727 506T752 497L565 68Q549 33 509 12T416 -9L389 383L383 381L386 335L234 -9Q181 -9 149 11Z" />
<glyph unicode="x" glyph-name="x" horiz-adv-x="577" d="M44 -9T23 -2T-7 18L209 257L91 489Q100 497 120 503T160 509Q221 509 236 477L294 345L268 316L275 310L413 477Q426 492 449 500T502 509Q522 509 542 503T568 489L367 257L500 18Q470 -9 425 -9Q399
-9 381 -2T356 19L278 178L143 19Q130 4 114 -2T69 -9Q44 -9 23 -2Z" />
<glyph unicode="y" glyph-name="y" horiz-adv-x="586" d="M28 -209T10 -188T-9 -128Q-9 -113 -6 -93Q21 -99 46 -99Q83 -99 107 -80T167 -4L188 30L78 498Q85 502 103 505T136 509Q170 509 192 496T220 459L272 198L247 149L255 146L433 459Q446 482 473 495T534
509Q550 509 569 506T594 498L276 -44Q224 -132 175 -170T64 -209Q28 -209 10 -188Z" />
<glyph unicode="z" glyph-name="z" horiz-adv-x="530" d="M22 0T11 12T-1 45Q-1 69 16 86L374 427L369 432L332 399H154Q125 399 109 417T93 470Q93 484 96 500H487Q507 500 518 489T530 459Q530 432 510 414L152 73L158 67L195 101H393Q421 101 437 82T453 30Q453
17 450 0H40Q22 0 11 12Z" />
<glyph unicode="{" glyph-name="braceleft" horiz-adv-x="411" d="M131 -124T105 -99T79 -27Q79 -16 83 12L113 183Q115 195 115 200Q115 219 107 229T84 240Q65 240 54 252T42 285Q42 317 60 339T105 362Q122 362 136 377T154 419L184 590Q196 657 234 691T332
726H458Q448 668 428 637T369 605H355Q346 605 339 600T331 585L302 422Q287 334 222 301Q263 275 263 219Q263 208 259 180L230 17V13Q230 6 235 2T248 -3H262Q289 -3 301 -19T314 -71Q314 -99 309 -124H183Q131 -124 105 -99Z" />
<glyph unicode="|" glyph-name="bar" horiz-adv-x="257" d="M128 670Q137 723 182 750T294 777L149 -46Q140 -99 96 -126T-17 -153L128 670Z" />
<glyph unicode="}" glyph-name="braceright" horiz-adv-x="411" d="M-22 -65T-1 -34T58 -3H72Q81 -3 88 2T97 17L126 180Q133 219 150 250T206 301Q164 328 164 384Q164 394 168 422L197 585V589Q197 605 180 605H166Q137 605 125 622T112 671Q112 696 118 726H245Q297
726 323 701T349 628Q349 618 345 590L315 419Q313 407 313 402Q313 383 321 373T344 362Q363 362 374 351T385 317Q385 285 367 263T322 240Q305 240 291 225T273 183L243 12Q232 -54 194 -89T95 -124H-32Q-22 -65 -1 -34Z" />
<glyph unicode="~" glyph-name="asciitilde" horiz-adv-x="617" d="M389 240T359 249T284 277Q244 293 223 300T179 307Q149 307 127 296T74 253Q48 287 48 320Q48 350 66 376T120 417T201 433Q237 433 268 424T342 396Q374 381 398 374T445 366Q511 366 556 428Q600
405 600 362Q600 333 578 305T515 258T423 240Q389 240 359 249Z" />
<glyph unicode="&#xa0;" glyph-name="uni00A0" horiz-adv-x="258" />
<glyph unicode="&#xa1;" glyph-name="exclamdown" horiz-adv-x="305" d="M235 509T258 489T281 436Q281 393 247 362T165 330Q128 330 106 350T83 403Q83 447 116 478T197 509Q235 509 258 489ZM91 287Q153 287 185 266T217 203Q217 196 215 182L146 -209Q86 -209
53 -189T19 -128Q19 -123 21 -109L91 287Z" />
<glyph unicode="&#xa2;" glyph-name="cent" horiz-adv-x="520" d="M504 348T469 324T377 300Q379 312 379 318Q379 347 363 366T319 390L269 110Q304 114 329 138T361 199Q407 199 435 183T464 140Q464 77 405 37T249 -9L241 -52Q237 -77 224 -90T182 -103L199
-8Q123 -1 79 41T34 146Q34 162 37 178L60 311Q73 392 136 445T289 508L297 552Q302 578 315 590T356 602L340 508Q413 503 458 470T504 386Q504 348 469 324ZM175 183T175 174Q175 152 186 137T220 114L268 386Q240 377 221 355T196 304L176 188Q175 183 175 174Z"
/>
<glyph unicode="&#xa3;" glyph-name="sterling" horiz-adv-x="601" d="M-1 53T20 83T77 126Q129 144 154 171T180 261Q180 281 174 321H63Q67 345 83 361T122 377H162Q154 423 154 456Q154 531 188 588T286 677T431 709Q477 709 518 696T584 658T609 604Q609 554
552 517Q527 550 495 565T416 580Q358 580 327 547T296 447Q296 426 303 377H480Q476 352 460 337T421 321H316Q323 284 323 260Q323 211 302 180T253 126H431Q524 126 524 37Q524 20 521 0H-10Q-1 53 20 83Z" />
<glyph unicode="&#xa4;" glyph-name="currency" horiz-adv-x="735" d="M245 74T187 117L159 93Q132 70 94 70Q63 70 40 87T14 134L106 212Q80 264 80 307Q80 366 102 409T155 489L90 566Q103 596 132 613T194 631Q232 631 249 608L270 582Q308 602 351 613T433
625Q472 625 511 614T581 582L611 608Q637 631 674 631Q706 631 729 614T755 566L663 489Q676 461 682 439T689 391Q689 332 668 291T614 212L679 134Q666 104 637 87T577 70Q539 70 520 93L500 117Q426 74 335 74Q245 74 187 117ZM405 196T448 221T517 287T543
375Q543 428 507 464T411 500Q363 500 321 475T252 409T226 322Q226 269 262 233T357 196Q405 196 448 221Z" />
<glyph unicode="&#xa5;" glyph-name="yen" horiz-adv-x="711" d="M434 257H529Q525 233 511 223T472 213H422L412 157H512Q508 133 494 123T454 113H404L401 97Q392 45 350 18T235 -9L257 113H145Q149 136 163 146T203 157H264L274 213H163Q170 257 220 257H278L112
694Q123 700 144 704T183 709Q223 709 247 693T284 640L374 392L333 330L344 325L555 640Q601 709 682 709Q700 709 722 704T753 694L434 257Z" />
<glyph unicode="&#xa6;" glyph-name="brokenbar" horiz-adv-x="257" d="M128 670Q137 723 182 750T294 777L240 471Q231 418 187 391T74 364L128 670ZM37 153Q46 206 91 233T203 260L149 -46Q140 -99 96 -126T-17 -153L37 153Z" />
<glyph unicode="&#xa7;" glyph-name="section" horiz-adv-x="528" d="M172 -9T123 6T43 48T12 113Q12 150 37 172T107 194Q115 194 133 192Q130 180 130 170Q130 134 165 115T248 95Q345 95 345 144Q345 161 326 170T243 197Q151 221 110 252T68 336Q68 412 136
461Q104 490 104 536Q104 591 138 630T226 689T339 709Q389 709 434 695T506 654T534 595Q534 558 510 539T439 520Q423 520 403 523Q406 534 406 544Q406 574 383 589T320 605Q283 605 259 593T234 558Q234 540 254 530T323 509Q422 488 466 456T511 369Q511 326
492 294T438 241Q475 215 475 168Q475 87 409 39T229 -9Q172 -9 123 6ZM380 310T380 342Q380 357 360 368T281 397L238 409Q222 406 211 392T199 362Q199 345 219 334T289 309Q324 299 342 289Q380 310 380 342Z" />
<glyph unicode="&#xa8;" glyph-name="dieresis" horiz-adv-x="431" d="M130 526T113 542T95 585Q95 621 121 647T184 673Q213 673 230 657T247 614Q247 578 221 552T158 526Q130 526 113 542ZM342 526T325 542T307 585Q307 621 333 647T396 673Q424 673 441 657T459
614Q459 578 433 552T370 526Q342 526 325 542Z" />
<glyph unicode="&#xa9;" glyph-name="copyright" horiz-adv-x="816" d="M269 -9T198 27T86 128T46 277Q46 403 102 501T258 654T488 709Q580 709 652 673T764 571T804 421Q804 296 748 198T591 46T361 -9Q269 -9 198 27ZM468 92T537 132T645 244T684 410Q684 468
657 513T581 583T470 608Q381 608 312 568T205 454T166 288Q166 231 193 187T268 117T379 92Q468 92 537 132ZM347 133T311 150T255 198T234 264Q234 272 236 286L259 416Q266 457 297 492T373 547T468 568Q510 568 546 552T605 510T627 453Q627 419 602 398T542
377Q516 377 494 388Q504 408 504 421Q504 440 490 452T450 464Q425 464 405 450T380 416L357 286Q353 267 369 253T410 238Q445 238 465 258T482 312Q508 325 532 325Q560 325 577 309T595 266Q595 232 565 201T486 152T391 133Q347 133 311 150Z" />
<glyph unicode="&#xaa;" glyph-name="ordfeminine" horiz-adv-x="450" d="M136 297T100 327T64 405Q64 450 88 486T156 544T252 565Q287 565 313 555T362 521L367 526Q360 534 345 547L347 558Q348 562 348 570Q348 596 329 610T274 624Q240 624 211 611T161 574Q144
578 133 589T122 614Q122 641 145 662T208 696T299 709Q370 709 413 675T456 586Q456 577 454 561L420 368Q413 330 387 314T307 297L312 328Q322 335 335 348L332 352Q299 323 267 310T191 297Q136 297 100 327ZM276 375T301 393T326 440Q326 462 307 474T254
487Q217 487 194 468T171 419Q171 396 186 386T235 375Q276 375 301 393Z" />
<glyph unicode="&#xab;" glyph-name="guillemotleft" horiz-adv-x="563" d="M52 249Q41 265 41 283Q41 309 67 335L240 500Q269 527 310 527Q334 527 350 515T368 479L171 292L302 105Q285 81 263 69T220 57Q186 57 166 85L52 249ZM252 249Q241 265 241 283Q241
309 267 335L440 500Q469 527 510 527Q534 527 550 515T568 479L371 292L502 105Q485 81 463 69T420 57Q386 57 366 85L252 249Z" />
<glyph unicode="&#xac;" glyph-name="logicalnot" horiz-adv-x="591" d="M422 311H45Q55 370 86 403T165 437H588L556 255Q547 203 506 180T395 156L422 311Z" />
<glyph unicode="&#xad;" glyph-name="uni00AD" horiz-adv-x="489" d="M52 350T146 350H471Q450 233 356 233H31Q52 350 146 350Z" />
<glyph unicode="&#xae;" glyph-name="registered" horiz-adv-x="816" d="M269 -9T198 27T86 128T46 277Q46 403 102 501T258 654T488 709Q580 709 652 673T764 571T804 421Q804 296 748 198T591 46T361 -9Q269 -9 198 27ZM468 92T537 132T645 244T684 410Q684
468 657 513T581 583T470 608Q381 608 312 568T205 454T166 288Q166 231 193 187T268 117T379 92Q468 92 537 132ZM285 504Q289 526 309 541T354 556H522Q574 556 603 530T633 457Q633 417 613 385T562 345Q599 325 599 285Q599 278 597 266L590 229Q584 195 553
181T459 166L477 264Q478 268 478 275Q478 301 446 301H367L354 229Q347 194 319 180T225 166L285 504ZM483 391Q494 391 503 403T512 431Q512 441 507 447T494 454H394L383 391H483Z" />
<glyph unicode="&#xaf;" glyph-name="overscore" horiz-adv-x="442" d="M95 589T120 615T196 641H477Q467 587 441 562T367 536H86Q95 589 120 615Z" />
<glyph unicode="&#xb0;" glyph-name="degree" horiz-adv-x="429" d="M174 411T132 449T90 551Q90 609 116 653T191 722T302 747Q370 747 412 709T454 608Q454 550 428 505T354 436T243 411Q174 411 132 449ZM299 502T324 527T349 594Q349 622 332 639T286 656Q246
656 221 631T196 564Q196 536 213 519T259 502Q299 502 324 527Z" />
<glyph unicode="&#xb1;" glyph-name="plusminus" horiz-adv-x="648" d="M272 369H55Q65 428 96 461T175 495H294L312 596Q321 647 360 671T473 695L438 495H655Q645 436 615 403T534 369H416L398 267Q380 168 236 168L272 369ZM0 60T31 93T110 127H590Q580 68
550 35T469 1H-10Q0 60 31 93Z" />
<glyph unicode="&#xb2;" glyph-name="uni00B2" horiz-adv-x="483" d="M91 400T76 413T61 449Q61 506 123 559T286 644Q337 659 362 678T387 733Q387 753 373 764T332 775Q293 775 272 753T251 686Q251 678 252 674Q236 671 220 671Q177 671 149 689T120 742Q120
778 149 814T232 873T353 896Q442 896 488 854T534 749Q534 673 479 628T353 561Q297 544 272 533T239 511H403Q446 511 467 493T488 437Q488 426 484 400H118Q91 400 76 413Z" />
<glyph unicode="&#xb3;" glyph-name="uni00B3" horiz-adv-x="475" d="M170 394T117 428T64 519Q64 582 105 602T219 624Q215 613 211 594T207 565Q207 538 225 521T279 504Q323 504 345 520T368 566Q368 582 356 589T316 597H296Q279 597 268 607T257 636Q257
665 273 684T315 703H336Q359 703 373 715T387 747Q387 763 372 772T329 782Q289 782 268 766T243 728Q241 711 239 695Q177 694 146 709T115 754Q115 794 145 826T229 877T350 896Q430 896 482 862T534 769Q534 728 512 697T452 649Q514 628 514 572Q514 522 484
482T395 418T260 394Q170 394 117 428Z" />
<glyph unicode="&#xb4;" glyph-name="acute" horiz-adv-x="372" d="M224 710Q258 756 332 756H427L226 547Q210 530 192 524T143 517Q119 517 83 520L224 710Z" />
<glyph unicode="&#xb6;" glyph-name="paragraph" horiz-adv-x="676" d="M279 240Q186 240 127 285T68 414Q68 497 108 562T220 663T383 700H700L571 -30Q561 -84 519 -110T407 -136L532 574H482L376 -30Q366 -84 324 -110T212 -136L279 240Z" />
<glyph unicode="&#xb7;" glyph-name="middot" horiz-adv-x="235" d="M79 212T60 230T40 277Q40 315 69 344T138 373Q168 373 188 355T208 307Q208 269 178 241T109 212Q79 212 60 230Z" />
<glyph unicode="&#xb8;" glyph-name="cedilla" horiz-adv-x="334" d="M26 -244T-6 -224T-39 -175Q-39 -159 -31 -145T-10 -123Q11 -163 74 -163Q101 -163 117 -152T133 -123Q133 -94 83 -94Q60 -94 40 -100Q27 -104 18 -97T9 -78Q9 -65 19 -54L93 36H213L148 -39Q187
-39 210 -60T233 -115Q233 -151 212 -180T155 -227T74 -244Q26 -244 -6 -224Z" />
<glyph unicode="&#xb9;" glyph-name="uni00B9" horiz-adv-x="347" d="M233 768H206Q173 768 154 793T134 860Q134 874 137 890H332Q357 890 373 876T390 840Q390 834 389 831L328 490Q320 443 279 419T168 394L233 768Z" />
<glyph unicode="&#xba;" glyph-name="ordmasculine" horiz-adv-x="448" d="M155 297T112 334T69 427Q69 444 71 453L89 553Q102 625 159 667T305 709Q384 709 426 671T469 578Q469 569 467 553L449 453Q436 381 379 339T232 297Q155 297 112 334ZM285 391T310
408T340 455L357 551Q358 555 358 562Q358 586 339 600T289 615Q253 615 228 598T197 551L180 455Q179 451 179 444Q179 419 198 405T249 391Q285 391 310 408Z" />
<glyph unicode="&#xbb;" glyph-name="guillemotright" horiz-adv-x="563" d="M124 72T107 65T73 58Q52 58 35 69T9 105L206 292L75 479Q84 502 105 514T150 527Q169 527 185 520T210 500L325 335Q336 319 336 301Q336 274 309 249L137 85Q124 72 107 65ZM323 72T306
65T272 58Q251 58 234 69T208 105L405 292L274 479Q283 502 304 514T349 527Q368 527 384 520T409 500L524 335Q535 319 535 301Q535 274 508 249L336 85Q323 72 306 65Z" />
<glyph unicode="&#xbc;" glyph-name="onequarter" horiz-adv-x="971" d="M626 691Q642 713 666 725T717 737Q761 737 793 708L322 10Q307 -12 284 -24T234 -36Q189 -36 157 -5L626 691ZM209 577H182Q149 577 130 602T110 668Q110 683 113 699H308Q332 699 349
685T366 649Q366 643 365 640L304 299Q295 250 254 227T144 203L209 577ZM688 116H524Q501 116 487 127T473 159Q473 173 479 188T495 213L769 472Q792 493 834 493Q859 493 874 479T890 443Q890 436 889 432L852 225H931Q924 182 914 159T886 126T839 116H833L825
68Q818 25 781 8T666 -9L688 116ZM741 217L757 309L784 339L777 345L642 217H741Z" />
<glyph unicode="&#xbd;" glyph-name="onehalf" horiz-adv-x="1044" d="M625 691Q640 713 664 725T716 737Q760 737 792 708L321 10Q306 -12 283 -24T233 -36Q188 -36 156 -5L625 691ZM209 577H182Q149 577 130 602T110 668Q110 683 113 699H308Q332 699 349 685T366
649Q366 643 365 640L304 299Q295 250 254 227T144 203L209 577ZM571 0T556 13T540 49Q540 106 602 159T766 244Q818 260 842 279T867 333Q867 353 852 364T812 375Q773 375 752 353T731 286V274Q715 271 699 271Q656 271 628 289T599 342Q599 378 628 414T711
473T832 496Q921 496 967 454T1014 349Q1014 273 960 228T832 161Q779 145 752 133T718 111H882Q926 111 946 93T967 36Q967 20 964 0H598Q571 0 556 13Z" />
<glyph unicode="&#xbe;" glyph-name="threequarters" horiz-adv-x="1118" d="M772 691Q787 713 811 725T862 737Q907 737 939 708L469 10Q454 -12 431 -24T381 -36Q335 -36 304 -5L772 691ZM157 207T104 241T51 332Q51 395 92 415T206 437Q202 426 198 407T194
378Q194 351 212 334T266 317Q310 317 332 333T355 379Q355 395 343 402T303 410H283Q266 410 255 420T244 449Q244 478 260 497T302 516H323Q346 516 360 528T374 560Q374 576 359 585T316 595Q276 595 255 579T230 541Q228 523 226 508Q164 507 133 522T102 567Q102
607 132 639T216 690T337 709Q421 709 471 676T522 582Q522 541 500 510T440 462Q502 441 502 385Q502 336 468 296T375 231T247 207Q157 207 104 241ZM835 116H671Q647 116 633 127T619 159Q619 173 625 188T642 213L916 472Q938 493 980 493Q1006 493 1021 479T1037
443Q1037 436 1036 432L999 225H1078Q1070 181 1060 158T1033 126T986 116H980L972 68Q965 25 928 8T813 -9L835 116ZM888 217L904 309L930 339L923 345L789 217H888Z" />
<glyph unicode="&#xbf;" glyph-name="questiondown" horiz-adv-x="573" d="M380 509T402 489T425 437Q425 393 392 362T311 330Q273 330 250 350T227 404Q227 447 261 478T342 509Q380 509 402 489ZM358 218Q350 172 320 145T234 85Q184 55 160 32T135 -28Q135
-52 158 -67T224 -82Q284 -82 318 -52T352 38Q352 48 350 56Q367 59 384 59Q428 59 458 39T488 -15Q488 -65 453 -109T354 -181T213 -209Q149 -209 97 -190T14 -135T-17 -55Q-17 -5 4 30T55 88T131 137Q171 160 190 175T213 210L216 226Q230 298 372 298L358 218Z"
/>
<glyph unicode="&#xc0;" glyph-name="Agrave" horiz-adv-x="698" d="M51 -5T28 17T4 74Q4 113 32 157L349 660Q366 686 385 697T429 709Q480 709 493 660L630 157Q636 133 636 112Q636 61 605 29T519 -9L469 174H210L94 -9Q51 -5 28 17ZM444 300L386 556L371 550L386
483L276 300H444ZM474 747T451 747Q419 747 403 753T376 777L275 940H370Q407 940 431 929T462 894L509 750Q474 747 451 747Z" />
<glyph unicode="&#xc1;" glyph-name="Aacute" horiz-adv-x="698" d="M51 -5T28 17T4 74Q4 113 32 157L349 660Q366 686 385 697T429 709Q480 709 493 660L630 157Q636 133 636 112Q636 61 605 29T519 -9L469 174H210L94 -9Q51 -5 28 17ZM444 300L386 556L371 550L386
483L276 300H444ZM460 891Q475 916 498 927T558 938H653L508 777Q492 760 477 754T433 747Q411 747 375 750L460 891Z" />
<glyph unicode="&#xc2;" glyph-name="Acircumflex" horiz-adv-x="698" d="M51 -5T28 17T4 74Q4 113 32 157L349 660Q366 686 385 697T429 709Q480 709 493 660L630 157Q636 133 636 112Q636 61 605 29T519 -9L469 174H210L94 -9Q51 -5 28 17ZM444 300L386 556L371
550L386 483L276 300H444ZM363 760T347 754T312 748Q288 748 269 759T243 792L429 955Q454 977 479 977Q504 977 521 955L649 792Q635 771 612 760T564 748Q546 748 532 754T511 771L458 859L373 771Q363 760 347 754Z" />
<glyph unicode="&#xc3;" glyph-name="Atilde" horiz-adv-x="698" d="M51 -5T28 17T4 74Q4 113 32 157L349 660Q366 686 385 697T429 709Q480 709 493 660L630 157Q636 133 636 112Q636 61 605 29T519 -9L469 174H210L94 -9Q51 -5 28 17ZM444 300L386 556L371 550L386
483L276 300H444ZM290 747T275 764T260 811Q260 860 295 893T380 926Q412 926 433 916T478 886Q495 873 504 868T524 863Q554 863 554 895Q554 904 550 918Q564 926 583 926Q609 926 625 907T641 858Q641 811 609 779T529 747Q504 747 486 757T442 787Q423 802
410 809T384 817Q367 817 357 806T347 775Q347 766 350 755Q336 747 317 747Q290 747 275 764Z" />
<glyph unicode="&#xc4;" glyph-name="Adieresis" horiz-adv-x="698" d="M51 -5T28 17T4 74Q4 113 32 157L349 660Q366 686 385 697T429 709Q480 709 493 660L630 157Q636 133 636 112Q636 61 605 29T519 -9L469 174H210L94 -9Q51 -5 28 17ZM444 300L386 556L371
550L386 483L276 300H444ZM305 756T288 772T270 815Q270 851 296 877T359 903Q388 903 405 887T422 844Q422 808 396 782T333 756Q305 756 288 772ZM517 756T500 772T482 815Q482 851 508 877T571 903Q599 903 616 887T634 844Q634 808 608 782T545 756Q517 756
500 772Z" />
<glyph unicode="&#xc5;" glyph-name="Aring" horiz-adv-x="698" d="M51 -5T28 17T4 74Q4 113 32 157L349 660Q366 686 385 697T429 709Q480 709 493 660L630 157Q636 133 636 112Q636 61 605 29T519 -9L469 174H210L94 -9Q51 -5 28 17ZM444 300L386 556L371 550L386
483L276 300H444ZM384 748T351 776T318 850Q318 890 340 924T399 978T481 998Q534 998 566 970T598 896Q598 856 577 822T518 768T437 748Q384 748 351 776ZM475 827T491 843T508 883Q508 900 497 910T467 920Q443 920 427 904T410 863Q410 846 421 837T451 827Q475
827 491 843Z" />
<glyph unicode="&#xc6;" glyph-name="AE" horiz-adv-x="910" d="M348 650Q362 673 388 686T445 700H934Q923 637 897 606T819 574H578L550 416H772Q761 353 735 322T656 290H527L499 126H761Q800 126 817 107T835 49Q835 30 830 0H403Q376 0 358 16T340 56Q340
63 341 67L360 174H208L92 -9Q49 -5 27 16T5 71Q5 111 35 157L348 650ZM382 300L424 537L274 300H382Z" />
<glyph unicode="&#xc7;" glyph-name="Ccedilla" horiz-adv-x="686" d="M691 480T645 451T526 421Q540 465 540 488Q540 529 501 555T398 581Q328 581 277 541T214 436L184 266Q182 257 182 239Q182 185 219 152T322 119Q376 119 417 138T482 193T506 274V275Q566
275 603 257T641 211Q641 153 606 107T507 31T359 -6L331 -39Q370 -39 393 -60T416 -115Q416 -151 395 -180T338 -227T257 -244Q209 -244 177 -224T144 -175Q144 -159 152 -145T173 -123Q194 -163 257 -163Q284 -163 300 -152T316 -123Q316 -94 266 -94Q243 -94
223 -100Q210 -104 201 -97T192 -78Q192 -65 202 -54L242 -5Q145 8 89 67T32 215Q32 236 37 266L67 436Q89 561 180 635T420 709Q499 709 560 686T656 621T691 526Q691 480 645 451Z" />
<glyph unicode="&#xc8;" glyph-name="Egrave" horiz-adv-x="631" d="M122 633Q127 661 152 680T208 700H655Q644 635 616 605T539 574H258L231 416H493Q482 351 454 321T377 290H208L179 126H481Q519 126 537 108T556 49Q556 30 551 0H84Q56 0 39 15T21 55Q21
63 22 67L122 633ZM435 747T412 747Q380 747 364 753T337 777L236 940H331Q368 940 392 929T423 894L470 750Q435 747 412 747Z" />
<glyph unicode="&#xc9;" glyph-name="Eacute" horiz-adv-x="631" d="M122 633Q127 661 152 680T208 700H655Q644 635 616 605T539 574H258L231 416H493Q482 351 454 321T377 290H208L179 126H481Q519 126 537 108T556 49Q556 30 551 0H84Q56 0 39 15T21 55Q21
63 22 67L122 633ZM421 891Q436 916 459 927T519 938H614L469 777Q453 760 438 754T394 747Q372 747 336 750L421 891Z" />
<glyph unicode="&#xca;" glyph-name="Ecircumflex" horiz-adv-x="631" d="M122 633Q127 661 152 680T208 700H655Q644 635 616 605T539 574H258L231 416H493Q482 351 454 321T377 290H208L179 126H481Q519 126 537 108T556 49Q556 30 551 0H84Q56 0 39 15T21 55Q21
63 22 67L122 633ZM324 760T308 754T273 748Q249 748 230 759T204 792L390 955Q415 977 440 977Q465 977 482 955L610 792Q596 771 573 760T525 748Q507 748 493 754T472 771L419 859L334 771Q324 760 308 754Z" />
<glyph unicode="&#xcb;" glyph-name="Edieresis" horiz-adv-x="631" d="M122 633Q127 661 152 680T208 700H655Q644 635 616 605T539 574H258L231 416H493Q482 351 454 321T377 290H208L179 126H481Q519 126 537 108T556 49Q556 30 551 0H84Q56 0 39 15T21 55Q21
63 22 67L122 633ZM266 756T249 772T231 815Q231 851 257 877T320 903Q349 903 366 887T383 844Q383 808 357 782T294 756Q266 756 249 772ZM478 756T461 772T443 815Q443 851 469 877T532 903Q560 903 577 887T595 844Q595 808 569 782T506 756Q478 756 461 772Z"
/>
<glyph unicode="&#xcc;" glyph-name="Igrave" horiz-adv-x="297" d="M137 602Q146 653 189 681T302 709L194 98Q185 47 142 19T29 -9L137 602ZM273 747T250 747Q218 747 202 753T175 777L74 940H169Q206 940 230 929T261 894L308 750Q273 747 250 747Z" />
<glyph unicode="&#xcd;" glyph-name="Iacute" horiz-adv-x="297" d="M137 602Q146 653 189 681T302 709L194 98Q185 47 142 19T29 -9L137 602ZM259 891Q274 916 297 927T357 938H452L307 777Q291 760 276 754T232 747Q210 747 174 750L259 891Z" />
<glyph unicode="&#xce;" glyph-name="Icircumflex" horiz-adv-x="297" d="M137 602Q146 653 189 681T302 709L194 98Q185 47 142 19T29 -9L137 602ZM162 760T146 754T111 748Q87 748 68 759T42 792L228 955Q253 977 278 977Q303 977 320 955L448 792Q434 771 411
760T363 748Q345 748 331 754T310 771L257 859L172 771Q162 760 146 754Z" />
<glyph unicode="&#xcf;" glyph-name="Idieresis" horiz-adv-x="297" d="M137 602Q146 653 189 681T302 709L194 98Q185 47 142 19T29 -9L137 602ZM104 756T87 772T69 815Q69 851 95 877T158 903Q187 903 204 887T221 844Q221 808 195 782T132 756Q104 756 87 772ZM316
756T299 772T281 815Q281 851 307 877T370 903Q398 903 415 887T433 844Q433 808 407 782T344 756Q316 756 299 772Z" />
<glyph unicode="&#xd0;" glyph-name="Eth" horiz-adv-x="764" d="M563 700T622 670T715 587T748 469Q748 444 744 424L718 278Q693 141 604 71T364 0H146Q118 0 101 15T83 55Q83 63 84 67L123 290H41Q48 332 69 357T117 383H140L184 633Q189 662 214 681T270 700H488Q563
700 622 670ZM600 446T600 462Q600 517 564 545T455 574H320L286 383H446Q439 342 418 316T370 290H270L241 126H376Q459 126 508 164T571 276L597 426Q600 446 600 462Z" />
<glyph unicode="&#xd1;" glyph-name="Ntilde" horiz-adv-x="675" d="M115 594Q124 646 166 677T269 709L499 201L512 210L480 285L555 709Q683 709 683 624Q683 619 681 603L590 88Q583 50 544 21T461 -9L215 532L203 523L235 448L173 97Q164 45 122 18T9 -9L115
594ZM281 747T266 764T251 811Q251 860 286 893T371 926Q403 926 424 916T469 886Q486 873 495 868T515 863Q545 863 545 895Q545 904 541 918Q555 926 574 926Q600 926 616 907T632 858Q632 811 600 779T520 747Q495 747 477 757T433 787Q414 802 401 809T375
817Q358 817 348 806T338 775Q338 766 341 755Q327 747 308 747Q281 747 266 764Z" />
<glyph unicode="&#xd2;" glyph-name="Ograve" horiz-adv-x="672" d="M213 -9T154 18T62 92T29 196Q29 213 32 231L74 469Q87 543 136 597T259 680T417 709Q492 709 551 682T645 607T679 502Q679 486 676 469L634 231Q622 161 574 107T453 22T291 -9Q213 -9 154
18ZM381 119T429 151T487 234L528 466Q530 480 530 487Q530 531 496 556T395 581Q327 581 279 549T221 466L180 234Q178 218 178 212Q178 168 211 144T313 119Q381 119 429 151ZM461 747T438 747Q406 747 390 753T363 777L262 940H357Q394 940 418 929T449 894L496
750Q461 747 438 747Z" />
<glyph unicode="&#xd3;" glyph-name="Oacute" horiz-adv-x="672" d="M213 -9T154 18T62 92T29 196Q29 213 32 231L74 469Q87 543 136 597T259 680T417 709Q492 709 551 682T645 607T679 502Q679 486 676 469L634 231Q622 161 574 107T453 22T291 -9Q213 -9 154
18ZM381 119T429 151T487 234L528 466Q530 480 530 487Q530 531 496 556T395 581Q327 581 279 549T221 466L180 234Q178 218 178 212Q178 168 211 144T313 119Q381 119 429 151ZM447 891Q462 916 485 927T545 938H640L495 777Q479 760 464 754T420 747Q398 747
362 750L447 891Z" />
<glyph unicode="&#xd4;" glyph-name="Ocircumflex" horiz-adv-x="672" d="M213 -9T154 18T62 92T29 196Q29 213 32 231L74 469Q87 543 136 597T259 680T417 709Q492 709 551 682T645 607T679 502Q679 486 676 469L634 231Q622 161 574 107T453 22T291 -9Q213 -9
154 18ZM381 119T429 151T487 234L528 466Q530 480 530 487Q530 531 496 556T395 581Q327 581 279 549T221 466L180 234Q178 218 178 212Q178 168 211 144T313 119Q381 119 429 151ZM350 760T334 754T299 748Q275 748 256 759T230 792L416 955Q441 977 466 977Q491
977 508 955L636 792Q622 771 599 760T551 748Q533 748 519 754T498 771L445 859L360 771Q350 760 334 754Z" />
<glyph unicode="&#xd5;" glyph-name="Otilde" horiz-adv-x="672" d="M213 -9T154 18T62 92T29 196Q29 213 32 231L74 469Q87 543 136 597T259 680T417 709Q492 709 551 682T645 607T679 502Q679 486 676 469L634 231Q622 161 574 107T453 22T291 -9Q213 -9 154
18ZM381 119T429 151T487 234L528 466Q530 480 530 487Q530 531 496 556T395 581Q327 581 279 549T221 466L180 234Q178 218 178 212Q178 168 211 144T313 119Q381 119 429 151ZM277 747T262 764T247 811Q247 860 282 893T367 926Q399 926 420 916T465 886Q482
873 491 868T511 863Q541 863 541 895Q541 904 537 918Q551 926 570 926Q596 926 612 907T628 858Q628 811 596 779T516 747Q491 747 473 757T429 787Q410 802 397 809T371 817Q354 817 344 806T334 775Q334 766 337 755Q323 747 304 747Q277 747 262 764Z" />
<glyph unicode="&#xd6;" glyph-name="Odieresis" horiz-adv-x="672" d="M213 -9T154 18T62 92T29 196Q29 213 32 231L74 469Q87 543 136 597T259 680T417 709Q492 709 551 682T645 607T679 502Q679 486 676 469L634 231Q622 161 574 107T453 22T291 -9Q213 -9
154 18ZM381 119T429 151T487 234L528 466Q530 480 530 487Q530 531 496 556T395 581Q327 581 279 549T221 466L180 234Q178 218 178 212Q178 168 211 144T313 119Q381 119 429 151ZM292 756T275 772T257 815Q257 851 283 877T346 903Q375 903 392 887T409 844Q409
808 383 782T320 756Q292 756 275 772ZM504 756T487 772T469 815Q469 851 495 877T558 903Q586 903 603 887T621 844Q621 808 595 782T532 756Q504 756 487 772Z" />
<glyph unicode="&#xd7;" glyph-name="multiply" horiz-adv-x="610" d="M221 292L73 468Q94 496 121 511T175 526Q213 526 234 499L328 383L462 499Q493 527 532 527Q559 527 581 512T612 468L403 292L550 115Q530 86 504 71T451 56Q411 56 388 85L296 200L171
92Q152 76 131 68T89 59Q62 59 41 73T11 115L221 292Z" />
<glyph unicode="&#xd8;" glyph-name="Oslash" horiz-adv-x="672" d="M641 616T660 579T679 500Q679 486 676 469L634 231Q621 159 575 105T455 21T291 -9Q234 -9 177 12L149 -29Q139 -44 116 -52T66 -61Q39 -61 25 -52L100 58Q66 86 48 122T29 200Q29 215 32 231L74
469Q87 544 136 598T259 681T417 709Q477 709 529 689L561 736Q571 750 596 759T647 768Q672 768 686 760L607 644Q641 616 660 579ZM177 220T177 213Q177 195 183 180L452 575Q427 581 395 581Q327 581 278 549T220 466L179 234Q177 220 177 213ZM530 480T530
487Q530 506 524 522L254 125Q279 119 313 119Q381 119 429 151T487 234L528 466Q530 480 530 487Z" />
<glyph unicode="&#xd9;" glyph-name="Ugrave" horiz-adv-x="700" d="M228 -9T170 20T80 100T47 216Q47 241 51 261L111 603Q120 655 162 682T277 709L198 261Q195 245 195 229Q195 176 229 148T326 119Q401 119 446 155T504 261L564 603Q573 655 615 682T730 709L651
261Q628 133 537 62T303 -9Q228 -9 170 20ZM484 747T461 747Q429 747 413 753T386 777L285 940H380Q417 940 441 929T472 894L519 750Q484 747 461 747Z" />
<glyph unicode="&#xda;" glyph-name="Uacute" horiz-adv-x="700" d="M228 -9T170 20T80 100T47 216Q47 241 51 261L111 603Q120 655 162 682T277 709L198 261Q195 245 195 229Q195 176 229 148T326 119Q401 119 446 155T504 261L564 603Q573 655 615 682T730 709L651
261Q628 133 537 62T303 -9Q228 -9 170 20ZM470 891Q485 916 508 927T568 938H663L518 777Q502 760 487 754T443 747Q421 747 385 750L470 891Z" />
<glyph unicode="&#xdb;" glyph-name="Ucircumflex" horiz-adv-x="700" d="M228 -9T170 20T80 100T47 216Q47 241 51 261L111 603Q120 655 162 682T277 709L198 261Q195 245 195 229Q195 176 229 148T326 119Q401 119 446 155T504 261L564 603Q573 655 615 682T730
709L651 261Q628 133 537 62T303 -9Q228 -9 170 20ZM373 760T357 754T322 748Q298 748 279 759T253 792L439 955Q464 977 489 977Q514 977 531 955L659 792Q645 771 622 760T574 748Q556 748 542 754T521 771L468 859L383 771Q373 760 357 754Z" />
<glyph unicode="&#xdc;" glyph-name="Udieresis" horiz-adv-x="700" d="M228 -9T170 20T80 100T47 216Q47 241 51 261L111 603Q120 655 162 682T277 709L198 261Q195 245 195 229Q195 176 229 148T326 119Q401 119 446 155T504 261L564 603Q573 655 615 682T730
709L651 261Q628 133 537 62T303 -9Q228 -9 170 20ZM315 756T298 772T280 815Q280 851 306 877T369 903Q398 903 415 887T432 844Q432 808 406 782T343 756Q315 756 298 772ZM527 756T510 772T492 815Q492 851 518 877T581 903Q609 903 626 887T644 844Q644 808
618 782T555 756Q527 756 510 772Z" />
<glyph unicode="&#xdd;" glyph-name="Yacute" horiz-adv-x="711" d="M281 250L112 694Q123 700 144 704T183 709Q223 709 247 693T284 640L374 392L333 330L344 325L555 640Q601 709 682 709Q700 709 722 704T753 694L428 249L401 97Q392 45 350 18T235 -9L281
250ZM467 891Q482 916 505 927T565 938H660L515 777Q499 760 484 754T440 747Q418 747 382 750L467 891Z" />
<glyph unicode="&#xde;" glyph-name="Thorn" horiz-adv-x="678" d="M134 700Q198 700 231 678T264 614Q264 608 262 594L258 569H446Q510 569 559 547T635 484T662 390Q662 309 627 249T526 155T375 122H179L175 97Q167 45 125 18T9 -9L134 700ZM397 249Q452 249
482 280T513 370Q513 405 491 423T424 442H236L201 249H397Z" />
<glyph unicode="&#xdf;" glyph-name="germandbls" horiz-adv-x="625" d="M87 464Q108 581 185 645T383 709Q483 709 543 666T603 549Q603 482 566 431T462 360Q522 346 553 312T585 224Q585 154 555 101T468 20T337 -9Q278 -9 240 16T201 79Q201 109 228 143Q264
113 323 113Q435 113 435 219Q435 262 402 280T288 302L305 398Q370 398 410 432T450 520Q450 551 427 568T362 585Q308 585 274 554T229 464L140 -39Q132 -87 92 -111T-19 -136L87 464Z" />
<glyph unicode="&#xe0;" glyph-name="agrave" horiz-adv-x="544" d="M103 -9T59 28T15 126Q15 184 45 230T130 302T252 328Q296 328 329 315T390 273L396 279Q382 296 368 306L370 319Q371 324 371 333Q371 366 348 384T280 402Q236 402 199 386T136 339Q116 344
103 358T89 390Q89 423 118 450T199 493T312 509Q404 509 456 469T509 358Q509 341 506 323L463 80Q455 33 422 12T320 -9L327 30Q342 41 356 55L352 60Q311 23 270 7T174 -9Q103 -9 59 28ZM283 89T314 111T345 171Q345 199 321 214T255 230Q208 230 179 207T150
145Q150 89 230 89Q283 89 314 111ZM357 547T334 547Q302 547 286 553T259 577L158 740H253Q290 740 314 729T345 694L392 550Q357 547 334 547Z" />
<glyph unicode="&#xe1;" glyph-name="aacute" horiz-adv-x="544" d="M103 -9T59 28T15 126Q15 184 45 230T130 302T252 328Q296 328 329 315T390 273L396 279Q382 296 368 306L370 319Q371 324 371 333Q371 366 348 384T280 402Q236 402 199 386T136 339Q116 344
103 358T89 390Q89 423 118 450T199 493T312 509Q404 509 456 469T509 358Q509 341 506 323L463 80Q455 33 422 12T320 -9L327 30Q342 41 356 55L352 60Q311 23 270 7T174 -9Q103 -9 59 28ZM283 89T314 111T345 171Q345 199 321 214T255 230Q208 230 179 207T150
145Q150 89 230 89Q283 89 314 111ZM343 691Q358 716 381 727T441 738H536L391 577Q375 560 360 554T316 547Q294 547 258 550L343 691Z" />
<glyph unicode="&#xe2;" glyph-name="acircumflex" horiz-adv-x="544" d="M103 -9T59 28T15 126Q15 184 45 230T130 302T252 328Q296 328 329 315T390 273L396 279Q382 296 368 306L370 319Q371 324 371 333Q371 366 348 384T280 402Q236 402 199 386T136 339Q116
344 103 358T89 390Q89 423 118 450T199 493T312 509Q404 509 456 469T509 358Q509 341 506 323L463 80Q455 33 422 12T320 -9L327 30Q342 41 356 55L352 60Q311 23 270 7T174 -9Q103 -9 59 28ZM283 89T314 111T345 171Q345 199 321 214T255 230Q208 230 179 207T150
145Q150 89 230 89Q283 89 314 111ZM246 560T230 554T195 548Q171 548 152 559T126 592L312 755Q337 777 362 777Q387 777 404 755L532 592Q518 571 495 560T447 548Q429 548 415 554T394 571L341 659L256 571Q246 560 230 554Z" />
<glyph unicode="&#xe3;" glyph-name="atilde" horiz-adv-x="544" d="M103 -9T59 28T15 126Q15 184 45 230T130 302T252 328Q296 328 329 315T390 273L396 279Q382 296 368 306L370 319Q371 324 371 333Q371 366 348 384T280 402Q236 402 199 386T136 339Q116 344
103 358T89 390Q89 423 118 450T199 493T312 509Q404 509 456 469T509 358Q509 341 506 323L463 80Q455 33 422 12T320 -9L327 30Q342 41 356 55L352 60Q311 23 270 7T174 -9Q103 -9 59 28ZM283 89T314 111T345 171Q345 199 321 214T255 230Q208 230 179 207T150
145Q150 89 230 89Q283 89 314 111ZM173 547T158 564T143 611Q143 660 178 693T263 726Q295 726 316 716T361 686Q378 673 387 668T407 663Q437 663 437 695Q437 704 433 718Q447 726 466 726Q492 726 508 707T524 658Q524 611 492 579T412 547Q387 547 369 557T325
587Q306 602 293 609T267 617Q250 617 240 606T230 575Q230 566 233 555Q219 547 200 547Q173 547 158 564Z" />
<glyph unicode="&#xe4;" glyph-name="adieresis" horiz-adv-x="544" d="M103 -9T59 28T15 126Q15 184 45 230T130 302T252 328Q296 328 329 315T390 273L396 279Q382 296 368 306L370 319Q371 324 371 333Q371 366 348 384T280 402Q236 402 199 386T136 339Q116
344 103 358T89 390Q89 423 118 450T199 493T312 509Q404 509 456 469T509 358Q509 341 506 323L463 80Q455 33 422 12T320 -9L327 30Q342 41 356 55L352 60Q311 23 270 7T174 -9Q103 -9 59 28ZM283 89T314 111T345 171Q345 199 321 214T255 230Q208 230 179 207T150
145Q150 89 230 89Q283 89 314 111ZM188 556T171 572T153 615Q153 651 179 677T242 703Q271 703 288 687T305 644Q305 608 279 582T216 556Q188 556 171 572ZM400 556T383 572T365 615Q365 651 391 677T454 703Q482 703 499 687T517 644Q517 608 491 582T428 556Q400
556 383 572Z" />
<glyph unicode="&#xe5;" glyph-name="aring" horiz-adv-x="544" d="M103 -9T59 28T15 126Q15 184 45 230T130 302T252 328Q296 328 329 315T390 273L396 279Q382 296 368 306L370 319Q371 324 371 333Q371 366 348 384T280 402Q236 402 199 386T136 339Q116 344
103 358T89 390Q89 423 118 450T199 493T312 509Q404 509 456 469T509 358Q509 341 506 323L463 80Q455 33 422 12T320 -9L327 30Q342 41 356 55L352 60Q311 23 270 7T174 -9Q103 -9 59 28ZM283 89T314 111T345 171Q345 199 321 214T255 230Q208 230 179 207T150
145Q150 89 230 89Q283 89 314 111ZM267 548T234 576T201 650Q201 690 223 724T282 778T364 798Q417 798 449 770T481 696Q481 656 460 622T401 568T320 548Q267 548 234 576ZM358 627T374 643T391 683Q391 700 380 710T350 720Q326 720 310 704T293 663Q293 646
304 637T334 627Q358 627 374 643Z" />
<glyph unicode="&#xe6;" glyph-name="ae" horiz-adv-x="845" d="M111 -9T64 28T16 127Q16 185 46 230T131 302T253 328Q297 328 330 315T391 273L397 279Q382 295 369 306L371 319Q372 324 372 333Q372 366 349 384T281 402Q237 402 200 386T137 339Q116 344 103
358T89 390Q89 421 119 448T199 492T306 509Q359 509 400 491T460 438Q495 473 540 491T637 509Q692 509 734 489T800 432T824 349Q824 333 821 315L811 261Q807 236 786 220T737 204H486L483 190Q481 182 481 168Q481 136 503 118T564 99Q607 99 634 118T667 171Q687
173 696 173Q733 173 752 160T772 120Q772 87 742 57T662 9T556 -9Q503 -9 460 12T404 67Q370 32 311 12T188 -9Q111 -9 64 28ZM694 301L696 315Q698 329 698 335Q698 402 617 402Q573 402 542 378T505 315L503 301H694ZM284 89T315 111T346 171Q346 199 322 214T255
230Q209 230 180 207T151 145Q151 118 172 104T231 89Q284 89 315 111Z" />
<glyph unicode="&#xe7;" glyph-name="ccedilla" horiz-adv-x="520" d="M504 348T469 324T377 300Q379 312 379 318Q379 351 359 371T303 391Q263 391 233 367T196 304L176 188Q175 183 175 174Q175 145 196 127T254 109Q294 109 323 134T361 199Q407 199 435 183T464
140Q464 85 418 47T293 -4L263 -39Q302 -39 325 -60T348 -115Q348 -151 327 -180T270 -227T189 -244Q141 -244 109 -224T76 -175Q76 -159 84 -145T105 -123Q126 -163 189 -163Q216 -163 232 -152T248 -123Q248 -94 198 -94Q175 -94 155 -100Q142 -104 133 -97T124
-78Q124 -65 134 -54L175 -4Q109 8 72 48T34 147Q34 162 37 178L60 311Q70 369 106 414T197 484T319 509Q401 509 452 475T504 386Q504 348 469 324Z" />
<glyph unicode="&#xe8;" glyph-name="egrave" horiz-adv-x="534" d="M177 -9T132 12T61 71T35 153Q35 171 37 180L60 308Q70 367 107 412T201 483T325 509Q381 509 423 489T489 432T513 349Q513 333 510 315L500 261Q495 236 475 220T426 204H174L172 190Q171
184 171 172Q171 137 192 118T253 99Q296 99 323 118T356 171Q378 173 385 173Q461 173 461 120Q461 86 430 56T347 9T233 -9Q177 -9 132 12ZM383 301L386 315Q389 327 389 337Q389 368 368 385T305 402Q263 402 233 379T194 315L191 301H383ZM368 547T345 547Q313
547 297 553T270 577L169 740H264Q301 740 325 729T356 694L403 550Q368 547 345 547Z" />
<glyph unicode="&#xe9;" glyph-name="eacute" horiz-adv-x="534" d="M177 -9T132 12T61 71T35 153Q35 171 37 180L60 308Q70 367 107 412T201 483T325 509Q381 509 423 489T489 432T513 349Q513 333 510 315L500 261Q495 236 475 220T426 204H174L172 190Q171
184 171 172Q171 137 192 118T253 99Q296 99 323 118T356 171Q378 173 385 173Q461 173 461 120Q461 86 430 56T347 9T233 -9Q177 -9 132 12ZM383 301L386 315Q389 327 389 337Q389 368 368 385T305 402Q263 402 233 379T194 315L191 301H383ZM354 691Q369 716
392 727T452 738H547L402 577Q386 560 371 554T327 547Q305 547 269 550L354 691Z" />
<glyph unicode="&#xea;" glyph-name="ecircumflex" horiz-adv-x="534" d="M177 -9T132 12T61 71T35 153Q35 171 37 180L60 308Q70 367 107 412T201 483T325 509Q381 509 423 489T489 432T513 349Q513 333 510 315L500 261Q495 236 475 220T426 204H174L172 190Q171
184 171 172Q171 137 192 118T253 99Q296 99 323 118T356 171Q378 173 385 173Q461 173 461 120Q461 86 430 56T347 9T233 -9Q177 -9 132 12ZM383 301L386 315Q389 327 389 337Q389 368 368 385T305 402Q263 402 233 379T194 315L191 301H383ZM257 560T241 554T206
548Q182 548 163 559T137 592L323 755Q348 777 373 777Q398 777 415 755L543 592Q529 571 506 560T458 548Q440 548 426 554T405 571L352 659L267 571Q257 560 241 554Z" />
<glyph unicode="&#xeb;" glyph-name="edieresis" horiz-adv-x="534" d="M177 -9T132 12T61 71T35 153Q35 171 37 180L60 308Q70 367 107 412T201 483T325 509Q381 509 423 489T489 432T513 349Q513 333 510 315L500 261Q495 236 475 220T426 204H174L172 190Q171
184 171 172Q171 137 192 118T253 99Q296 99 323 118T356 171Q378 173 385 173Q461 173 461 120Q461 86 430 56T347 9T233 -9Q177 -9 132 12ZM383 301L386 315Q389 327 389 337Q389 368 368 385T305 402Q263 402 233 379T194 315L191 301H383ZM199 556T182 572T164
615Q164 651 190 677T253 703Q282 703 299 687T316 644Q316 608 290 582T227 556Q199 556 182 572ZM411 556T394 572T376 615Q376 651 402 677T465 703Q493 703 510 687T528 644Q528 608 502 582T439 556Q411 556 394 572Z" />
<glyph unicode="&#xec;" glyph-name="igrave" horiz-adv-x="247" d="M86 429Q93 472 130 490T237 509L160 71Q153 31 119 11T9 -9L86 429ZM217 556T194 556Q162 556 146 562T119 586L18 749H113Q150 749 174 738T205 703L252 559Q217 556 194 556Z" />
<glyph unicode="&#xed;" glyph-name="iacute" horiz-adv-x="247" d="M86 429Q93 472 130 490T237 509L160 71Q153 31 119 11T9 -9L86 429ZM203 700Q218 725 241 736T301 747H396L251 586Q235 569 220 563T176 556Q154 556 118 559L203 700Z" />
<glyph unicode="&#xee;" glyph-name="icircumflex" horiz-adv-x="247" d="M86 429Q93 472 130 490T237 509L160 71Q153 31 119 11T9 -9L86 429ZM106 569T90 563T55 557Q31 557 12 568T-14 601L172 764Q197 786 222 786Q247 786 264 764L392 601Q378 580 355 569T307
557Q289 557 275 563T254 580L201 668L116 580Q106 569 90 563Z" />
<glyph unicode="&#xef;" glyph-name="idieresis" horiz-adv-x="247" d="M86 429Q93 472 130 490T237 509L160 71Q153 31 119 11T9 -9L86 429ZM48 565T31 581T13 624Q13 660 39 686T102 712Q131 712 148 696T165 653Q165 617 139 591T76 565Q48 565 31 581ZM260
565T243 581T225 624Q225 660 251 686T314 712Q342 712 359 696T377 653Q377 617 351 591T288 565Q260 565 243 581Z" />
<glyph unicode="&#xf0;" glyph-name="eth" horiz-adv-x="656" d="M211 -9T155 19T66 97T33 211Q33 297 72 367T180 477T336 517Q389 517 432 493T504 425L514 432Q512 436 504 451T485 476Q472 517 449 543T381 588L250 532Q248 542 248 547Q248 563 257 577T285
598L317 612Q285 620 256 624Q235 627 224 643T213 682Q213 703 222 721T248 751Q318 744 370 726T471 678L588 728Q591 719 591 711Q591 678 553 662L518 647Q581 601 609 542T637 400Q637 265 586 173T452 36T279 -9Q211 -9 155 19ZM354 114T395 138T459 205T481
299Q481 351 448 383T358 415Q308 415 267 393T201 329T176 234Q176 184 210 149T299 114Q354 114 395 138Z" />
<glyph unicode="&#xf1;" glyph-name="ntilde" horiz-adv-x="569" d="M82 405Q91 456 129 482T231 509L221 450Q201 430 190 416L196 412Q235 459 286 484T393 509Q456 509 496 468T536 364Q536 349 533 332L487 71Q479 30 443 11T336 -9L392 311Q394 325 394 331Q394
360 377 375T325 391Q278 391 242 361T197 282L160 71Q152 29 117 10T9 -9L82 405ZM192 547T177 564T162 611Q162 660 197 693T282 726Q314 726 335 716T380 686Q397 673 406 668T426 663Q456 663 456 695Q456 704 452 718Q466 726 485 726Q511 726 527 707T543
658Q543 611 511 579T431 547Q406 547 388 557T344 587Q325 602 312 609T286 617Q269 617 259 606T249 575Q249 566 252 555Q238 547 219 547Q192 547 177 564Z" />
<glyph unicode="&#xf2;" glyph-name="ograve" horiz-adv-x="542" d="M167 -9T120 12T47 70T21 152Q21 169 23 178L46 311Q62 401 134 455T317 509Q379 509 425 488T496 429T521 343Q521 328 518 311L495 178Q480 92 407 42T226 -9Q167 -9 120 12ZM294 109T323
130T360 188L380 304Q382 316 382 321Q382 354 360 372T297 391Q251 391 220 367T182 304L162 188Q161 183 161 172Q161 142 183 126T247 109Q294 109 323 130ZM362 547T339 547Q307 547 291 553T264 577L163 740H258Q295 740 319 729T350 694L397 550Q362 547
339 547Z" />
<glyph unicode="&#xf3;" glyph-name="oacute" horiz-adv-x="542" d="M167 -9T120 12T47 70T21 152Q21 169 23 178L46 311Q62 401 134 455T317 509Q379 509 425 488T496 429T521 343Q521 328 518 311L495 178Q480 92 407 42T226 -9Q167 -9 120 12ZM294 109T323
130T360 188L380 304Q382 316 382 321Q382 354 360 372T297 391Q251 391 220 367T182 304L162 188Q161 183 161 172Q161 142 183 126T247 109Q294 109 323 130ZM348 691Q363 716 386 727T446 738H541L396 577Q380 560 365 554T321 547Q299 547 263 550L348 691Z"
/>
<glyph unicode="&#xf4;" glyph-name="ocircumflex" horiz-adv-x="542" d="M167 -9T120 12T47 70T21 152Q21 169 23 178L46 311Q62 401 134 455T317 509Q379 509 425 488T496 429T521 343Q521 328 518 311L495 178Q480 92 407 42T226 -9Q167 -9 120 12ZM294 109T323
130T360 188L380 304Q382 316 382 321Q382 354 360 372T297 391Q251 391 220 367T182 304L162 188Q161 183 161 172Q161 142 183 126T247 109Q294 109 323 130ZM251 560T235 554T200 548Q176 548 157 559T131 592L317 755Q342 777 367 777Q392 777 409 755L537
592Q523 571 500 560T452 548Q434 548 420 554T399 571L346 659L261 571Q251 560 235 554Z" />
<glyph unicode="&#xf5;" glyph-name="otilde" horiz-adv-x="542" d="M167 -9T120 12T47 70T21 152Q21 169 23 178L46 311Q62 401 134 455T317 509Q379 509 425 488T496 429T521 343Q521 328 518 311L495 178Q480 92 407 42T226 -9Q167 -9 120 12ZM294 109T323
130T360 188L380 304Q382 316 382 321Q382 354 360 372T297 391Q251 391 220 367T182 304L162 188Q161 183 161 172Q161 142 183 126T247 109Q294 109 323 130ZM178 547T163 564T148 611Q148 660 183 693T268 726Q300 726 321 716T366 686Q383 673 392 668T412
663Q442 663 442 695Q442 704 438 718Q452 726 471 726Q497 726 513 707T529 658Q529 611 497 579T417 547Q392 547 374 557T330 587Q311 602 298 609T272 617Q255 617 245 606T235 575Q235 566 238 555Q224 547 205 547Q178 547 163 564Z" />
<glyph unicode="&#xf6;" glyph-name="odieresis" horiz-adv-x="542" d="M167 -9T120 12T47 70T21 152Q21 169 23 178L46 311Q62 401 134 455T317 509Q379 509 425 488T496 429T521 343Q521 328 518 311L495 178Q480 92 407 42T226 -9Q167 -9 120 12ZM294 109T323
130T360 188L380 304Q382 316 382 321Q382 354 360 372T297 391Q251 391 220 367T182 304L162 188Q161 183 161 172Q161 142 183 126T247 109Q294 109 323 130ZM193 556T176 572T158 615Q158 651 184 677T247 703Q276 703 293 687T310 644Q310 608 284 582T221
556Q193 556 176 572ZM405 556T388 572T370 615Q370 651 396 677T459 703Q487 703 504 687T522 644Q522 608 496 582T433 556Q405 556 388 572Z" />
<glyph unicode="&#xf7;" glyph-name="divide" horiz-adv-x="648" d="M316 395T294 416T272 467Q272 492 287 515T327 553T379 567Q412 567 433 546T454 495Q454 470 439 447T400 410T349 395Q316 395 294 416ZM41 288T72 321T151 355H631Q621 296 591 263T510
229H31Q41 288 72 321ZM253 17T231 37T209 88Q209 113 224 136T264 174T316 189Q348 189 369 168T391 116Q391 91 376 68T337 31T285 17Q253 17 231 37Z" />
<glyph unicode="&#xf8;" glyph-name="oslash" horiz-adv-x="542" d="M521 415T521 342Q521 328 518 311L495 178Q486 124 447 82T350 15T226 -9Q190 -9 156 -1L137 -29Q126 -44 102 -52T53 -60Q25 -60 13 -52L74 38Q48 58 34 87T20 149Q20 163 23 178L46 311Q55
366 93 411T190 483T317 509Q357 509 388 500L411 534Q421 548 446 557T498 566Q521 566 537 558L469 459Q521 415 521 342ZM159 178T159 174L160 164L313 390Q308 391 296 391Q251 391 220 367T182 304L161 188Q159 178 159 174ZM382 314T382 319L381 329L231
110Q236 109 246 109Q293 109 322 130T359 188L380 304Q382 314 382 319Z" />
<glyph unicode="&#xf9;" glyph-name="ugrave" horiz-adv-x="563" d="M480 95Q471 44 433 18T330 -9L341 50Q349 57 357 66T372 84L365 88Q286 -9 178 -9Q111 -9 70 32T29 140Q29 158 32 177L76 429Q84 471 119 490T228 509L171 187Q169 178 169 163Q169 135 187
122T243 109Q289 109 322 138T364 218L401 429Q409 471 444 490T553 509L480 95ZM377 547T354 547Q322 547 306 553T279 577L178 740H273Q310 740 334 729T365 694L412 550Q377 547 354 547Z" />
<glyph unicode="&#xfa;" glyph-name="uacute" horiz-adv-x="563" d="M480 95Q471 44 433 18T330 -9L341 50Q349 57 357 66T372 84L365 88Q286 -9 178 -9Q111 -9 70 32T29 140Q29 158 32 177L76 429Q84 471 119 490T228 509L171 187Q169 178 169 163Q169 135 187
122T243 109Q289 109 322 138T364 218L401 429Q409 471 444 490T553 509L480 95ZM363 691Q378 716 401 727T461 738H556L411 577Q395 560 380 554T336 547Q314 547 278 550L363 691Z" />
<glyph unicode="&#xfb;" glyph-name="ucircumflex" horiz-adv-x="563" d="M480 95Q471 44 433 18T330 -9L341 50Q349 57 357 66T372 84L365 88Q286 -9 178 -9Q111 -9 70 32T29 140Q29 158 32 177L76 429Q84 471 119 490T228 509L171 187Q169 178 169 163Q169 135
187 122T243 109Q289 109 322 138T364 218L401 429Q409 471 444 490T553 509L480 95ZM266 560T250 554T215 548Q191 548 172 559T146 592L332 755Q357 777 382 777Q407 777 424 755L552 592Q538 571 515 560T467 548Q449 548 435 554T414 571L361 659L276 571Q266
560 250 554Z" />
<glyph unicode="&#xfc;" glyph-name="udieresis" horiz-adv-x="563" d="M480 95Q471 44 433 18T330 -9L341 50Q349 57 357 66T372 84L365 88Q286 -9 178 -9Q111 -9 70 32T29 140Q29 158 32 177L76 429Q84 471 119 490T228 509L171 187Q169 178 169 163Q169 135
187 122T243 109Q289 109 322 138T364 218L401 429Q409 471 444 490T553 509L480 95ZM208 556T191 572T173 615Q173 651 199 677T262 703Q291 703 308 687T325 644Q325 608 299 582T236 556Q208 556 191 572ZM420 556T403 572T385 615Q385 651 411 677T474 703Q502
703 519 687T537 644Q537 608 511 582T448 556Q420 556 403 572Z" />
<glyph unicode="&#xfd;" glyph-name="yacute" horiz-adv-x="586" d="M28 -209T10 -188T-9 -128Q-9 -113 -6 -93Q21 -99 46 -99Q83 -99 107 -80T167 -4L188 30L78 498Q85 502 103 505T136 509Q170 509 192 496T220 459L272 198L247 149L255 146L433 459Q446 482
473 495T534 509Q550 509 569 506T594 498L276 -44Q224 -132 175 -170T64 -209Q28 -209 10 -188ZM361 691Q376 716 399 727T459 738H554L409 577Q393 560 378 554T334 547Q312 547 276 550L361 691Z" />
<glyph unicode="&#xfe;" glyph-name="thorn" horiz-adv-x="538" d="M119 618Q127 659 165 684T261 709L216 455Q202 443 192 428L197 424Q237 469 280 489T378 509Q447 509 490 467T534 360Q534 344 531 327L504 173Q490 90 426 41T268 -9Q232 -9 195 6T139 44L134
39Q141 28 152 19L128 -119Q120 -163 81 -186T-27 -209L119 618ZM307 109T335 128T369 182L393 317Q395 329 395 333Q395 361 374 376T311 391Q270 391 240 372T204 322L178 178Q177 175 177 168Q177 142 200 126T261 109Q307 109 335 128Z" />
<glyph unicode="&#xff;" glyph-name="ydieresis" horiz-adv-x="586" d="M28 -209T10 -188T-9 -128Q-9 -113 -6 -93Q21 -99 46 -99Q83 -99 107 -80T167 -4L188 30L78 498Q85 502 103 505T136 509Q170 509 192 496T220 459L272 198L247 149L255 146L433 459Q446
482 473 495T534 509Q550 509 569 506T594 498L276 -44Q224 -132 175 -170T64 -209Q28 -209 10 -188ZM206 556T189 572T171 615Q171 651 197 677T260 703Q289 703 306 687T323 644Q323 608 297 582T234 556Q206 556 189 572ZM418 556T401 572T383 615Q383 651 409
677T472 703Q500 703 517 687T535 644Q535 608 509 582T446 556Q418 556 401 572Z" />
<glyph unicode="&#x2013;" glyph-name="endash" horiz-adv-x="635" d="M52 350T146 350H617Q596 233 502 233H31Q52 350 146 350Z" />
<glyph unicode="&#x2014;" glyph-name="emdash" horiz-adv-x="765" d="M52 350T146 350H747Q726 233 632 233H31Q52 350 146 350Z" />
<glyph unicode="&#x2018;" glyph-name="quoteleft" horiz-adv-x="264" d="M117 381T95 403T73 459Q73 514 113 584T208 696Q226 709 249 709Q269 709 278 700Q235 666 207 624T175 556Q184 562 203 562Q232 562 250 543T269 493Q269 447 236 414T156 381Q117 381 95 403Z" />
<glyph unicode="&#x2019;" glyph-name="quoteright" horiz-adv-x="264" d="M132 425T160 466T192 534Q183 528 164 528Q134 528 116 547T97 597Q97 643 130 676T211 709Q250 709 271 687T293 631Q293 575 252 504T160 395Q140 381 117 381Q98 381 89 390Q132 425
160 466Z" />
<glyph unicode="&#x201a;" glyph-name="quotesinglbase" horiz-adv-x="264" d="M37 -112T65 -71T97 -3Q88 -9 69 -9Q39 -9 21 10T2 60Q2 106 35 139T116 172Q155 172 176 150T198 94Q198 38 157 -33T65 -142Q45 -156 22 -156Q3 -156 -6 -147Q37 -112 65 -71Z" />
<glyph unicode="&#x201c;" glyph-name="quotedblleft" horiz-adv-x="482" d="M235 666T207 624T175 556Q184 562 203 562Q233 562 251 543T270 493Q270 447 237 414T156 381Q117 381 95 403T73 459Q73 514 113 584T208 696Q226 709 249 709Q269 709 278 700Q235
666 207 624ZM453 666T425 624T393 556Q402 562 421 562Q450 562 468 543T487 493Q487 447 454 414T374 381Q335 381 313 403T291 459Q291 514 331 584T426 696Q444 709 467 709Q487 709 496 700Q453 666 425 624Z" />
<glyph unicode="&#x201d;" glyph-name="quotedblright" horiz-adv-x="482" d="M132 425T160 466T192 534Q183 528 164 528Q134 528 116 547T97 597Q97 643 130 676T211 709Q250 709 272 687T294 631Q294 575 253 504T160 395Q140 381 117 381Q98 381 89 390Q132
425 160 466ZM350 425T378 466T410 534Q401 528 382 528Q352 528 334 547T315 597Q315 643 348 676T429 709Q468 709 489 687T511 631Q511 575 470 504T378 395Q358 381 335 381Q316 381 307 390Q350 425 378 466Z" />
<glyph unicode="&#x201e;" glyph-name="quotedblbase" horiz-adv-x="482" d="M37 -112T65 -71T97 -3Q88 -9 69 -9Q39 -9 21 10T2 60Q2 106 35 139T116 172Q155 172 177 150T199 94Q199 38 158 -33T65 -142Q45 -156 22 -156Q3 -156 -6 -147Q37 -112 65 -71ZM255
-112T283 -71T315 -3Q306 -9 287 -9Q257 -9 239 10T220 60Q220 106 253 139T334 172Q373 172 394 150T416 94Q416 38 375 -33T283 -142Q263 -156 240 -156Q221 -156 212 -147Q255 -112 283 -71Z" />
<glyph unicode="&#x2022;" glyph-name="bullet" horiz-adv-x="358" d="M109 153T75 186T40 269Q40 310 64 347T127 408T211 431Q263 431 297 398T332 315Q332 274 308 237T245 176T162 153Q109 153 75 186Z" />
<glyph unicode="&#x2039;" glyph-name="guilsinglleft" horiz-adv-x="372" d="M52 249Q41 265 41 283Q41 309 67 335L240 500Q254 513 273 520T313 527Q339 527 357 515T377 479L180 292L311 105Q294 81 271 70T225 58Q184 58 166 85L52 249Z" />
<glyph unicode="&#x203a;" glyph-name="guilsinglright" horiz-adv-x="372" d="M133 72T115 65T79 58Q55 58 37 69T9 105L206 292L75 479Q84 502 106 514T155 527Q175 527 192 520T219 500L333 335Q344 319 344 301Q344 274 317 249L146 85Q133 72 115 65Z" />
</font>
</defs>
</svg>
